
        <svg width="100%" height="100%" viewBox="0 0 500 500">
                <g id="layer_1">
                    <circle cx="40" cy="230" r="50" fill="yellow" stroke="none"  fill-opacity="0.5"/>
                    <circle cx="120" cy="70" r="70" fill="green" stroke="none"  fill-opacity="0.5"/>
                    <rect x="210" y="235" width="120" height="120" fill="#6b2933" stroke="green"  fill-opacity="1" transform="rotate(-30 270 295)" />
                    <polygon points="260,230, 370,190 380,330" fill="green" stroke="blue"  fill-opacity="0.5" transform="rotate(60 260,230,)"/>
                </g>
                <g id="layer_2"> 
                    <rect x="138" y="10" width="120" height="120" fill="#bf302c" stroke="none"  fill-opacity="0.9" transform="rotate(-5 198 70)" />
                    <rect x="45" y="90" width="120" height="120" fill="#e84139" stroke="none"  fill-opacity="1" transform="rotate(-45 105 150)" />
                    <ellipse cx="280" cy="150" rx="90" ry="60" fill="blue" stroke="purple"  fill-opacity="1" transform="rotate(40 280 150)"/>
                    <rect x="270" y="330" width="120" height="120" fill="orange" stroke="none"  fill-opacity="1" transform="rotate(45 330 390)" />
                    <line x1="400" y1="400" x2="450" y2="480" stroke="red" stroke-width="10"  fill-opacity="0.9" transform="rotate(-20 425 440)"/>
                    <line x1="390" y1="410" x2="440" y2="490" stroke="green" stroke-width="10"  fill-opacity="0.9" transform="rotate(-20 415 450)"/>
                    <line x1="380" y1="420" x2="430" y2="500" stroke="blue" stroke-width="10"  fill-opacity="0.9" transform="rotate(-20 405 460)"/>
                </g>
            </svg>