
            <svg width="100%" height="100%" viewBox="0 0 500 500">
                <g> <g transform="translate(0, 0) rotate(0) scale(1)" fill="none" stroke="black" fill-opacity="1"><rect width="30" height="30"/></g>,<g transform="translate(12.674356401412947, 12.674356401412947) rotate(-5.174356401412947) scale(1)" fill="none" stroke="black" fill-opacity="1"><rect width="15" height="15"/></g>,<g transform="translate(19.163527845253522, 19.163527845253522) rotate(7.913527845253523) scale(1)" fill="none" stroke="black" fill-opacity="1"><rect width="7.5" height="7.5"/></g>,<g transform="translate(22.484882337531722, 72.48488233753173) rotate(22.484882337531722) scale(1)" fill="none" stroke="black" fill-opacity="1"><rect width="30" height="30"/></g>,<g transform="translate(58.68088501384596, 108.68088501384597) rotate(51.18088501384596) scale(1)" fill="none" stroke="black" fill-opacity="1"><rect width="15" height="15"/></g>,<g transform="translate(70.16565919956126, 120.16565919956126) rotate(58.91565919956126) scale(1)" fill="none" stroke="black" fill-opacity="1"><rect width="7.5" height="7.5"/></g>,<g transform="translate(47.78760687224606, 97.78760687224606) rotate(-34.66260687224606) scale(1)" fill="none" stroke="black" fill-opacity="1"><rect width="3.75" height="3.75"/></g>,<g transform="translate(23.39440537060404, 123.39440537060403) rotate(-23.39440537060404) scale(1)" fill="none" stroke="black" fill-opacity="1"><rect width="30" height="30"/></g>,<g transform="translate(98.46683425378106, 198.46683425378106) rotate(90.96683425378106) scale(1)" fill="none" stroke="black" fill-opacity="1"><rect width="15" height="15"/></g>,<g transform="translate(9.123277849504367, 159.12327784950438) rotate(9.123277849504367) scale(1)" fill="none" stroke="black" fill-opacity="1"><rect width="30" height="30"/></g>,<g transform="translate(10.119111105718062, 160.11911110571808) rotate(2.619111105718063) scale(1)" fill="none" stroke="black" fill-opacity="1"><rect width="15" height="15"/></g>,<g transform="translate(170.3389645818261, 320.3389645818261) rotate(-159.0889645818261) scale(1)" fill="none" stroke="black" fill-opacity="1"><rect width="7.5" height="7.5"/></g>,<g transform="translate(2.788148956600682, 202.78814895660068) rotate(2.788148956600682) scale(1)" fill="none" stroke="black" fill-opacity="1"><rect width="30" height="30"/></g>,<g transform="translate(90.91865409703186, 290.9186540970319) rotate(-83.41865409703186) scale(1)" fill="none" stroke="black" fill-opacity="1"><rect width="15" height="15"/></g>,<g transform="translate(41.052134422733275, 241.05213442273327) rotate(-29.80213442273327) scale(1)" fill="none" stroke="black" fill-opacity="1"><rect width="7.5" height="7.5"/></g>,<g transform="translate(153.92444935964636, 353.92444935964636) rotate(140.79944935964636) scale(1)" fill="none" stroke="black" fill-opacity="1"><rect width="3.75" height="3.75"/></g>,<g transform="translate(35.56599989722257, 285.5659998972226) rotate(-35.56599989722257) scale(1)" fill="none" stroke="black" fill-opacity="1"><rect width="30" height="30"/></g>,<g transform="translate(44.963116390883116, 344.9631163908831) rotate(44.963116390883116) scale(1)" fill="none" stroke="black" fill-opacity="1"><rect width="30" height="30"/></g>,<g transform="translate(166.781828622776, 466.781828622776) rotate(-159.281828622776) scale(1)" fill="none" stroke="black" fill-opacity="1"><rect width="15" height="15"/></g>,<g transform="translate(50.20836006832311, 350.2083600683231) rotate(-38.95836006832311) scale(1)" fill="none" stroke="black" fill-opacity="1"><rect width="7.5" height="7.5"/></g>,<g transform="translate(48.74933630931538, 398.74933630931537) rotate(48.74933630931538) scale(1)" fill="none" stroke="black" fill-opacity="1"><rect width="30" height="30"/></g>,<g transform="translate(115.70227061115615, 465.70227061115617) rotate(-108.20227061115615) scale(1)" fill="none" stroke="black" fill-opacity="1"><rect width="15" height="15"/></g>,<g transform="translate(59.37808342663293, 409.37808342663294) rotate(-48.12808342663293) scale(1)" fill="none" stroke="black" fill-opacity="1"><rect width="7.5" height="7.5"/></g>,<g transform="translate(367.513580533905, 717.513580533905) rotate(354.388580533905) scale(1)" fill="none" stroke="black" fill-opacity="1"><rect width="3.75" height="3.75"/></g>,<g transform="translate(72.30069210908789, 472.3006921090879) rotate(-72.30069210908789) scale(1)" fill="none" stroke="black" fill-opacity="1"><rect width="30" height="30"/></g>,<g transform="translate(111.6840330133859, 561.6840330133859) rotate(-111.6840330133859) scale(1)" fill="none" stroke="black" fill-opacity="1"><rect width="30" height="30"/></g>,<g transform="translate(195.5805413518261, 645.5805413518261) rotate(-188.0805413518261) scale(1)" fill="none" stroke="black" fill-opacity="1"><rect width="15" height="15"/></g>,<g transform="translate(50, 0) rotate(0) scale(1)" fill="none" stroke="black" fill-opacity="1"><rect width="30" height="30"/></g>,<g transform="translate(60.76206061829761, 10.76206061829761) rotate(3.2620606182976095) scale(1)" fill="none" stroke="black" fill-opacity="1"><rect width="15" height="15"/></g>,<g transform="translate(65.62765295570038, 15.627652955700377) rotate(4.377652955700378) scale(1)" fill="none" stroke="black" fill-opacity="1"><rect width="7.5" height="7.5"/></g>,<g transform="translate(57.36065432274549, 57.36065432274549) rotate(7.360654322745492) scale(1)" fill="none" stroke="black" fill-opacity="1"><rect width="30" height="30"/></g>,<g transform="translate(108.58020260734105, 108.58020260734105) rotate(-51.08020260734104) scale(1)" fill="none" stroke="black" fill-opacity="1"><rect width="15" height="15"/></g>,<g transform="translate(93.99132604094993, 93.99132604094993) rotate(-32.74132604094992) scale(1)" fill="none" stroke="black" fill-opacity="1"><rect width="7.5" height="7.5"/></g>,<g transform="translate(119.64354898767206, 169.64354898767206) rotate(-69.64354898767206) scale(1)" fill="none" stroke="black" fill-opacity="1"><rect width="30" height="30"/></g>,<g transform="translate(152.87528183697617, 202.87528183697617) rotate(95.37528183697619) scale(1)" fill="none" stroke="black" fill-opacity="1"><rect width="15" height="15"/></g>,<g transform="translate(144.14479085159766, 194.14479085159766) rotate(82.89479085159766) scale(1)" fill="none" stroke="black" fill-opacity="1"><rect width="7.5" height="7.5"/></g>,<g transform="translate(151.7036545742734, 251.7036545742734) rotate(-101.7036545742734) scale(1)" fill="none" stroke="black" fill-opacity="1"><rect width="30" height="30"/></g>,<g transform="translate(189.68459054585063, 289.6845905458506) rotate(-132.18459054585063) scale(1)" fill="none" stroke="black" fill-opacity="1"><rect width="15" height="15"/></g>,<g transform="translate(158.00521753327334, 308.00521753327337) rotate(108.00521753327334) scale(1)" fill="none" stroke="black" fill-opacity="1"><rect width="30" height="30"/></g>,<g transform="translate(177.60094429218907, 327.60094429218907) rotate(120.10094429218906) scale(1)" fill="none" stroke="black" fill-opacity="1"><rect width="15" height="15"/></g>,<g transform="translate(186.99682008775133, 336.9968200877513) rotate(-125.74682008775133) scale(1)" fill="none" stroke="black" fill-opacity="1"><rect width="7.5" height="7.5"/></g>,<g transform="translate(205.5274245257075, 405.5274245257075) rotate(-155.5274245257075) scale(1)" fill="none" stroke="black" fill-opacity="1"><rect width="30" height="30"/></g>,<g transform="translate(60.015186707310306, 310.0151867073103) rotate(10.015186707310303) scale(1)" fill="none" stroke="black" fill-opacity="1"><rect width="30" height="30"/></g>,<g transform="translate(90.41587241996567, 340.4158724199657) rotate(32.915872419965666) scale(1)" fill="none" stroke="black" fill-opacity="1"><rect width="15" height="15"/></g>,<g transform="translate(294.8097794418917, 594.8097794418917) rotate(-244.80977944189172) scale(1)" fill="none" stroke="black" fill-opacity="1"><rect width="30" height="30"/></g>,<g transform="translate(140.2796266356363, 440.2796266356363) rotate(-82.77962663563632) scale(1)" fill="none" stroke="black" fill-opacity="1"><rect width="15" height="15"/></g>,<g transform="translate(105.03985968430311, 455.0398596843031) rotate(-55.03985968430311) scale(1)" fill="none" stroke="black" fill-opacity="1"><rect width="30" height="30"/></g>,<g transform="translate(390.1679645344306, 740.1679645344307) rotate(-332.6679645344306) scale(1)" fill="none" stroke="black" fill-opacity="1"><rect width="15" height="15"/></g>,<g transform="translate(183.69138522417796, 583.691385224178) rotate(-133.69138522417796) scale(1)" fill="none" stroke="black" fill-opacity="1"><rect width="30" height="30"/></g>,<g transform="translate(100, 0) rotate(0) scale(1)" fill="none" stroke="black" fill-opacity="1"><rect width="30" height="30"/></g>,<g transform="translate(128.0272310727808, 78.02723107278081) rotate(28.027231072780804) scale(1)" fill="none" stroke="black" fill-opacity="1"><rect width="30" height="30"/></g>,<g transform="translate(117.53990337569815, 67.53990337569815) rotate(10.039903375698142) scale(1)" fill="none" stroke="black" fill-opacity="1"><rect width="15" height="15"/></g>,<g transform="translate(145.2333081983552, 145.2333081983552) rotate(45.23330819835518) scale(1)" fill="none" stroke="black" fill-opacity="1"><rect width="30" height="30"/></g>,<g transform="translate(155.86661277669316, 155.86661277669316) rotate(48.36661277669316) scale(1)" fill="none" stroke="black" fill-opacity="1"><rect width="15" height="15"/></g>,<g transform="translate(149.5532003710764, 149.5532003710764) rotate(-38.303200371076386) scale(1)" fill="none" stroke="black" fill-opacity="1"><rect width="7.5" height="7.5"/></g>,<g transform="translate(186.02132822374284, 236.02132822374284) rotate(86.02132822374284) scale(1)" fill="none" stroke="black" fill-opacity="1"><rect width="30" height="30"/></g>,<g transform="translate(163.01733650823982, 213.01733650823982) rotate(55.517336508239815) scale(1)" fill="none" stroke="black" fill-opacity="1"><rect width="15" height="15"/></g>,<g transform="translate(118.23333884708862, 218.23333884708862) rotate(18.233338847088618) scale(1)" fill="none" stroke="black" fill-opacity="1"><rect width="30" height="30"/></g>,<g transform="translate(101.64905992586509, 251.6490599258651) rotate(-1.6490599258650818) scale(1)" fill="none" stroke="black" fill-opacity="1"><rect width="30" height="30"/></g>,<g transform="translate(166.23455052836135, 316.23455052836135) rotate(58.73455052836137) scale(1)" fill="none" stroke="black" fill-opacity="1"><rect width="15" height="15"/></g>,<g transform="translate(259.6553784010334, 459.6553784010334) rotate(-159.65537840103337) scale(1)" fill="none" stroke="black" fill-opacity="1"><rect width="30" height="30"/></g>,<g transform="translate(316.08003566639974, 566.0800356663997) rotate(216.08003566639974) scale(1)" fill="none" stroke="black" fill-opacity="1"><rect width="30" height="30"/></g>,<g transform="translate(370.49382712808494, 620.493827128085) rotate(262.99382712808494) scale(1)" fill="none" stroke="black" fill-opacity="1"><rect width="15" height="15"/></g>,<g transform="translate(326.1628576297818, 576.1628576297818) rotate(214.9128576297818) scale(1)" fill="none" stroke="black" fill-opacity="1"><rect width="7.5" height="7.5"/></g>,<g transform="translate(458.8668309260147, 708.8668309260147) rotate(-345.7418309260147) scale(1)" fill="none" stroke="black" fill-opacity="1"><rect width="3.75" height="3.75"/></g>,<g transform="translate(101.17801983758159, 401.1780198375816) rotate(-1.1780198375815827) scale(1)" fill="none" stroke="black" fill-opacity="1"><rect width="30" height="30"/></g>,<g transform="translate(164.1834750524135, 464.18347505241354) rotate(56.68347505241351) scale(1)" fill="none" stroke="black" fill-opacity="1"><rect width="15" height="15"/></g>,<g transform="translate(438.43038968042066, 738.4303896804206) rotate(327.18038968042066) scale(1)" fill="none" stroke="black" fill-opacity="1"><rect width="7.5" height="7.5"/></g>,<g transform="translate(425.46070579536945, 775.4607057953694) rotate(-325.46070579536945) scale(1)" fill="none" stroke="black" fill-opacity="1"><rect width="30" height="30"/></g>,<g transform="translate(150, 0) rotate(0) scale(1)" fill="none" stroke="black" fill-opacity="1"><rect width="30" height="30"/></g>,<g transform="translate(176.35668240820547, 76.35668240820546) rotate(-26.356682408205458) scale(1)" fill="none" stroke="black" fill-opacity="1"><rect width="30" height="30"/></g>,<g transform="translate(191.40606970809898, 91.40606970809898) rotate(-33.906069708098975) scale(1)" fill="none" stroke="black" fill-opacity="1"><rect width="15" height="15"/></g>,<g transform="translate(190.87812214385272, 90.87812214385272) rotate(29.628122143852718) scale(1)" fill="none" stroke="black" fill-opacity="1"><rect width="7.5" height="7.5"/></g>,<g transform="translate(182.96943930042502, 132.96943930042502) rotate(-32.969439300425016) scale(1)" fill="none" stroke="black" fill-opacity="1"><rect width="30" height="30"/></g>,<g transform="translate(165.83482285719757, 115.83482285719757) rotate(-8.334822857197565) scale(1)" fill="none" stroke="black" fill-opacity="1"><rect width="15" height="15"/></g>,<g transform="translate(269.0500666461393, 219.05006664613933) rotate(-107.80006664613931) scale(1)" fill="none" stroke="black" fill-opacity="1"><rect width="7.5" height="7.5"/></g>,<g transform="translate(223.0716227361018, 223.0716227361018) rotate(-73.0716227361018) scale(1)" fill="none" stroke="black" fill-opacity="1"><rect width="30" height="30"/></g>,<g transform="translate(248.56666954992536, 248.56666954992536) rotate(91.06666954992536) scale(1)" fill="none" stroke="black" fill-opacity="1"><rect width="15" height="15"/></g>,<g transform="translate(296.0364095451117, 296.0364095451117) rotate(-134.7864095451117) scale(1)" fill="none" stroke="black" fill-opacity="1"><rect width="7.5" height="7.5"/></g>,<g transform="translate(249.1336249150313, 299.1336249150313) rotate(-99.13362491503132) scale(1)" fill="none" stroke="black" fill-opacity="1"><rect width="30" height="30"/></g>,<g transform="translate(256.1376309228281, 306.1376309228281) rotate(-98.63763092282814) scale(1)" fill="none" stroke="black" fill-opacity="1"><rect width="15" height="15"/></g>,<g transform="translate(167.35590034683167, 267.3559003468317) rotate(-17.355900346831675) scale(1)" fill="none" stroke="black" fill-opacity="1"><rect width="30" height="30"/></g>,<g transform="translate(214.2411902425601, 314.2411902425601) rotate(56.741190242560094) scale(1)" fill="none" stroke="black" fill-opacity="1"><rect width="15" height="15"/></g>,<g transform="translate(218.90753115214335, 318.90753115214335) rotate(57.65753115214336) scale(1)" fill="none" stroke="black" fill-opacity="1"><rect width="7.5" height="7.5"/></g>,<g transform="translate(241.6194654747277, 391.6194654747277) rotate(91.61946547472769) scale(1)" fill="none" stroke="black" fill-opacity="1"><rect width="30" height="30"/></g>,<g transform="translate(374.51337522781927, 574.5133752278193) rotate(-224.51337522781927) scale(1)" fill="none" stroke="black" fill-opacity="1"><rect width="30" height="30"/></g>,<g transform="translate(485.88840234604726, 685.8884023460473) rotate(328.38840234604726) scale(1)" fill="none" stroke="black" fill-opacity="1"><rect width="15" height="15"/></g>,<g transform="translate(369.7616391911796, 569.7616391911796) rotate(-208.51163919117963) scale(1)" fill="none" stroke="black" fill-opacity="1"><rect width="7.5" height="7.5"/></g>,<g transform="translate(224.8850347419007, 474.8850347419007) rotate(-74.88503474190072) scale(1)" fill="none" stroke="black" fill-opacity="1"><rect width="30" height="30"/></g>,<g transform="translate(365.1005833668098, 615.1005833668098) rotate(-207.60058336680981) scale(1)" fill="none" stroke="black" fill-opacity="1"><rect width="15" height="15"/></g>,<g transform="translate(195.5945736136337, 445.5945736136337) rotate(34.3445736136337) scale(1)" fill="none" stroke="black" fill-opacity="1"><rect width="7.5" height="7.5"/></g>,<g transform="translate(281.1063041977098, 581.1063041977097) rotate(131.1063041977098) scale(1)" fill="none" stroke="black" fill-opacity="1"><rect width="30" height="30"/></g>,<g transform="translate(363.48316614192305, 663.483166141923) rotate(205.98316614192305) scale(1)" fill="none" stroke="black" fill-opacity="1"><rect width="15" height="15"/></g>,<g transform="translate(200, 0) rotate(0) scale(1)" fill="none" stroke="black" fill-opacity="1"><rect width="30" height="30"/></g>,<g transform="translate(208.05818927833602, 8.05818927833601) rotate(0.5581892783360101) scale(1)" fill="none" stroke="black" fill-opacity="1"><rect width="15" height="15"/></g>,<g transform="translate(212.80660965728066, 62.806609657280646) rotate(12.806609657280648) scale(1)" fill="none" stroke="black" fill-opacity="1"><rect width="30" height="30"/></g>,<g transform="translate(222.72593908721683, 72.72593908721683) rotate(-15.225939087216828) scale(1)" fill="none" stroke="black" fill-opacity="1"><rect width="15" height="15"/></g>,<g transform="translate(269.4031218624632, 169.40312186246322) rotate(-69.40312186246322) scale(1)" fill="none" stroke="black" fill-opacity="1"><rect width="30" height="30"/></g>,<g transform="translate(251.89230292646005, 151.89230292646005) rotate(-44.39230292646005) scale(1)" fill="none" stroke="black" fill-opacity="1"><rect width="15" height="15"/></g>,<g transform="translate(227.28335521781065, 177.28335521781065) rotate(27.28335521781065) scale(1)" fill="none" stroke="black" fill-opacity="1"><rect width="30" height="30"/></g>,<g transform="translate(247.12915797361944, 197.12915797361944) rotate(-39.629157973619456) scale(1)" fill="none" stroke="black" fill-opacity="1"><rect width="15" height="15"/></g>,<g transform="translate(340.69640602141453, 290.69640602141453) rotate(129.44640602141456) scale(1)" fill="none" stroke="black" fill-opacity="1"><rect width="7.5" height="7.5"/></g>,<g transform="translate(283.2283352479222, 283.2283352479222) rotate(83.22833524792217) scale(1)" fill="none" stroke="black" fill-opacity="1"><rect width="30" height="30"/></g>,<g transform="translate(209.0901311720205, 209.0901311720205) rotate(1.5901311720205111) scale(1)" fill="none" stroke="black" fill-opacity="1"><rect width="15" height="15"/></g>,<g transform="translate(219.31080539560162, 219.31080539560162) rotate(8.060805395601623) scale(1)" fill="none" stroke="black" fill-opacity="1"><rect width="7.5" height="7.5"/></g>,<g transform="translate(273.0136198796393, 323.0136198796393) rotate(-73.01361987963931) scale(1)" fill="none" stroke="black" fill-opacity="1"><rect width="30" height="30"/></g>,<g transform="translate(360.6798135377182, 460.6798135377182) rotate(-160.6798135377182) scale(1)" fill="none" stroke="black" fill-opacity="1"><rect width="30" height="30"/></g>,<g transform="translate(257.07141430147817, 357.07141430147817) rotate(-49.57141430147816) scale(1)" fill="none" stroke="black" fill-opacity="1"><rect width="15" height="15"/></g>,<g transform="translate(371.43681647211736, 471.43681647211736) rotate(160.18681647211739) scale(1)" fill="none" stroke="black" fill-opacity="1"><rect width="7.5" height="7.5"/></g>,<g transform="translate(329.8945051237506, 479.8945051237506) rotate(-129.89450512375063) scale(1)" fill="none" stroke="black" fill-opacity="1"><rect width="30" height="30"/></g>,<g transform="translate(299.61562167694785, 449.61562167694785) rotate(92.11562167694785) scale(1)" fill="none" stroke="black" fill-opacity="1"><rect width="15" height="15"/></g>,<g transform="translate(324.8314783818683, 474.8314783818683) rotate(-113.58147838186831) scale(1)" fill="none" stroke="black" fill-opacity="1"><rect width="7.5" height="7.5"/></g>,<g transform="translate(407.7339956495736, 607.7339956495737) rotate(207.73399564957361) scale(1)" fill="none" stroke="black" fill-opacity="1"><rect width="30" height="30"/></g>,<g transform="translate(216.38002241180004, 416.38002241180004) rotate(-8.880022411800038) scale(1)" fill="none" stroke="black" fill-opacity="1"><rect width="15" height="15"/></g>,<g transform="translate(471.16391031649744, 721.1639103164974) rotate(-271.16391031649744) scale(1)" fill="none" stroke="black" fill-opacity="1"><rect width="30" height="30"/></g>,<g transform="translate(423.4521276245673, 673.4521276245673) rotate(215.95212762456728) scale(1)" fill="none" stroke="black" fill-opacity="1"><rect width="15" height="15"/></g>,<g transform="translate(651.3468519111897, 901.3468519111897) rotate(-440.0968519111897) scale(1)" fill="none" stroke="black" fill-opacity="1"><rect width="7.5" height="7.5"/></g>,<g transform="translate(250, 0) rotate(0) scale(1)" fill="none" stroke="black" fill-opacity="1"><rect width="30" height="30"/></g>,<g transform="translate(258.22340915148635, 8.223409151486322) rotate(0.723409151486323) scale(1)" fill="none" stroke="black" fill-opacity="1"><rect width="15" height="15"/></g>,<g transform="translate(262.9469268837572, 12.946926883757195) rotate(1.6969268837571947) scale(1)" fill="none" stroke="black" fill-opacity="1"><rect width="7.5" height="7.5"/></g>,<g transform="translate(260.99775030492015, 60.997750304920125) rotate(-10.997750304920123) scale(1)" fill="none" stroke="black" fill-opacity="1"><rect width="30" height="30"/></g>,<g transform="translate(258.79041294419926, 58.79041294419926) rotate(-1.290412944199258) scale(1)" fill="none" stroke="black" fill-opacity="1"><rect width="15" height="15"/></g>,<g transform="translate(274.7680773413178, 124.76807734131779) rotate(24.7680773413178) scale(1)" fill="none" stroke="black" fill-opacity="1"><rect width="30" height="30"/></g>,<g transform="translate(324.51019382955, 174.51019382955002) rotate(67.01019382955003) scale(1)" fill="none" stroke="black" fill-opacity="1"><rect width="15" height="15"/></g>,<g transform="translate(315.71825364626153, 165.71825364626153) rotate(54.46825364626154) scale(1)" fill="none" stroke="black" fill-opacity="1"><rect width="7.5" height="7.5"/></g>,<g transform="translate(273.51002991073386, 123.51002991073385) rotate(10.385029910733854) scale(1)" fill="none" stroke="black" fill-opacity="1"><rect width="3.75" height="3.75"/></g>,<g transform="translate(266.29714594736134, 166.29714594736134) rotate(16.297145947361358) scale(1)" fill="none" stroke="black" fill-opacity="1"><rect width="30" height="30"/></g>,<g transform="translate(325.0880603162595, 275.0880603162595) rotate(-75.0880603162595) scale(1)" fill="none" stroke="black" fill-opacity="1"><rect width="30" height="30"/></g>,<g transform="translate(319.3784395834442, 319.3784395834442) rotate(-69.37843958344419) scale(1)" fill="none" stroke="black" fill-opacity="1"><rect width="30" height="30"/></g>,<g transform="translate(399.8441971838656, 399.8441971838656) rotate(-142.34419718386562) scale(1)" fill="none" stroke="black" fill-opacity="1"><rect width="15" height="15"/></g>,<g transform="translate(275.0116443933122, 325.0116443933122) rotate(25.011644393312235) scale(1)" fill="none" stroke="black" fill-opacity="1"><rect width="30" height="30"/></g>,<g transform="translate(367.86359014996634, 467.86359014996634) rotate(-117.86359014996634) scale(1)" fill="none" stroke="black" fill-opacity="1"><rect width="30" height="30"/></g>,<g transform="translate(470.3946770339734, 620.3946770339734) rotate(-220.39467703397335) scale(1)" fill="none" stroke="black" fill-opacity="1"><rect width="30" height="30"/></g>,<g transform="translate(475.89886666879295, 625.898866668793) rotate(-218.39886666879295) scale(1)" fill="none" stroke="black" fill-opacity="1"><rect width="15" height="15"/></g>,<g transform="translate(613.0762606817417, 763.0762606817417) rotate(351.8262606817417) scale(1)" fill="none" stroke="black" fill-opacity="1"><rect width="7.5" height="7.5"/></g>,<g transform="translate(493.7818291951299, 643.7818291951298) rotate(-230.6568291951299) scale(1)" fill="none" stroke="black" fill-opacity="1"><rect width="3.75" height="3.75"/></g>,<g transform="translate(570.6989281480021, 770.6989281480021) rotate(-320.69892814800215) scale(1)" fill="none" stroke="black" fill-opacity="1"><rect width="30" height="30"/></g>,<g transform="translate(671.3626456580491, 871.3626456580491) rotate(413.8626456580491) scale(1)" fill="none" stroke="black" fill-opacity="1"><rect width="15" height="15"/></g>,<g transform="translate(300, 0) rotate(0) scale(1)" fill="none" stroke="black" fill-opacity="1"><rect width="30" height="30"/></g>,<g transform="translate(311.89387446679075, 11.893874466790741) rotate(-4.393874466790742) scale(1)" fill="none" stroke="black" fill-opacity="1"><rect width="15" height="15"/></g>,<g transform="translate(324.43570907437316, 74.43570907437316) rotate(24.43570907437316) scale(1)" fill="none" stroke="black" fill-opacity="1"><rect width="30" height="30"/></g>,<g transform="translate(342.5675429571047, 92.5675429571047) rotate(-35.0675429571047) scale(1)" fill="none" stroke="black" fill-opacity="1"><rect width="15" height="15"/></g>,<g transform="translate(316.91134338038864, 66.91134338038864) rotate(5.661343380388648) scale(1)" fill="none" stroke="black" fill-opacity="1"><rect width="7.5" height="7.5"/></g>,<g transform="translate(368.2969882721662, 168.29698827216617) rotate(68.29698827216616) scale(1)" fill="none" stroke="black" fill-opacity="1"><rect width="30" height="30"/></g>,<g transform="translate(328.85520403207767, 178.85520403207767) rotate(28.85520403207767) scale(1)" fill="none" stroke="black" fill-opacity="1"><rect width="30" height="30"/></g>,<g transform="translate(350.86991698583887, 200.86991698583887) rotate(-43.369916985838884) scale(1)" fill="none" stroke="black" fill-opacity="1"><rect width="15" height="15"/></g>,<g transform="translate(421.2473419265434, 271.2473419265434) rotate(-109.99734192654338) scale(1)" fill="none" stroke="black" fill-opacity="1"><rect width="7.5" height="7.5"/></g>,<g transform="translate(377.5604484477891, 277.5604484477891) rotate(-77.56044844778911) scale(1)" fill="none" stroke="black" fill-opacity="1"><rect width="30" height="30"/></g>,<g transform="translate(345.6804084359692, 245.68040843596918) rotate(38.180408435969184) scale(1)" fill="none" stroke="black" fill-opacity="1"><rect width="15" height="15"/></g>,<g transform="translate(406.6273059580034, 306.6273059580034) rotate(95.37730595800338) scale(1)" fill="none" stroke="black" fill-opacity="1"><rect width="7.5" height="7.5"/></g>,<g transform="translate(365.95308210358496, 315.95308210358496) rotate(-65.95308210358495) scale(1)" fill="none" stroke="black" fill-opacity="1"><rect width="30" height="30"/></g>,<g transform="translate(498.69890453439257, 448.69890453439257) rotate(191.19890453439254) scale(1)" fill="none" stroke="black" fill-opacity="1"><rect width="15" height="15"/></g>,<g transform="translate(474.4424895825328, 474.4424895825328) rotate(174.4424895825328) scale(1)" fill="none" stroke="black" fill-opacity="1"><rect width="30" height="30"/></g>,<g transform="translate(550.6753597211681, 550.6753597211681) rotate(243.1753597211681) scale(1)" fill="none" stroke="black" fill-opacity="1"><rect width="15" height="15"/></g>,<g transform="translate(471.4392046833219, 521.4392046833219) rotate(-171.43920468332195) scale(1)" fill="none" stroke="black" fill-opacity="1"><rect width="30" height="30"/></g>,<g transform="translate(332.1635800617488, 382.1635800617488) rotate(24.663580061748824) scale(1)" fill="none" stroke="black" fill-opacity="1"><rect width="15" height="15"/></g>,<g transform="translate(334.23653018076305, 434.23653018076305) rotate(-34.236530180763054) scale(1)" fill="none" stroke="black" fill-opacity="1"><rect width="30" height="30"/></g>,<g transform="translate(363.7565352498747, 463.7565352498747) rotate(56.256535249874695) scale(1)" fill="none" stroke="black" fill-opacity="1"><rect width="15" height="15"/></g>,<g transform="translate(484.9128242611167, 584.9128242611167) rotate(-173.66282426111675) scale(1)" fill="none" stroke="black" fill-opacity="1"><rect width="7.5" height="7.5"/></g>,<g transform="translate(609.1424185441891, 759.1424185441891) rotate(309.1424185441891) scale(1)" fill="none" stroke="black" fill-opacity="1"><rect width="30" height="30"/></g>,<g transform="translate(350, 0) rotate(0) scale(1)" fill="none" stroke="black" fill-opacity="1"><rect width="30" height="30"/></g>,<g transform="translate(359.5866005938928, 9.586600593892804) rotate(-2.086600593892805) scale(1)" fill="none" stroke="black" fill-opacity="1"><rect width="15" height="15"/></g>,<g transform="translate(360.18233610937375, 60.18233610937377) rotate(10.182336109373773) scale(1)" fill="none" stroke="black" fill-opacity="1"><rect width="30" height="30"/></g>,<g transform="translate(403.46104834760905, 103.46104834760908) rotate(45.96104834760907) scale(1)" fill="none" stroke="black" fill-opacity="1"><rect width="15" height="15"/></g>,<g transform="translate(381.3790083892508, 81.37900838925083) rotate(20.12900838925083) scale(1)" fill="none" stroke="black" fill-opacity="1"><rect width="7.5" height="7.5"/></g>,<g transform="translate(373.47712865399086, 73.47712865399083) rotate(10.352128653990835) scale(1)" fill="none" stroke="black" fill-opacity="1"><rect width="3.75" height="3.75"/></g>,<g transform="translate(358.60864527204797, 108.60864527204797) rotate(-8.60864527204797) scale(1)" fill="none" stroke="black" fill-opacity="1"><rect width="30" height="30"/></g>,<g transform="translate(395.8185757035178, 145.81857570351778) rotate(-38.31857570351778) scale(1)" fill="none" stroke="black" fill-opacity="1"><rect width="15" height="15"/></g>,<g transform="translate(364.4097444266381, 114.40974442663813) rotate(3.159744426638121) scale(1)" fill="none" stroke="black" fill-opacity="1"><rect width="7.5" height="7.5"/></g>,<g transform="translate(438.6404310109441, 188.6404310109441) rotate(75.51543101094411) scale(1)" fill="none" stroke="black" fill-opacity="1"><rect width="3.75" height="3.75"/></g>,<g transform="translate(351.632568235542, 151.63256823554198) rotate(-1.6325682355419873) scale(1)" fill="none" stroke="black" fill-opacity="1"><rect width="30" height="30"/></g>,<g transform="translate(362.0387331035787, 162.03873310357866) rotate(4.538733103578668) scale(1)" fill="none" stroke="black" fill-opacity="1"><rect width="15" height="15"/></g>,<g transform="translate(477.12219624477655, 277.12219624477655) rotate(115.87219624477652) scale(1)" fill="none" stroke="black" fill-opacity="1"><rect width="7.5" height="7.5"/></g>,<g transform="translate(378.30229475821005, 178.30229475821005) rotate(-15.177294758210039) scale(1)" fill="none" stroke="black" fill-opacity="1"><rect width="3.75" height="3.75"/></g>,<g transform="translate(455.88827033676654, 305.88827033676654) rotate(105.88827033676654) scale(1)" fill="none" stroke="black" fill-opacity="1"><rect width="30" height="30"/></g>,<g transform="translate(538.5196700058284, 388.5196700058284) rotate(-181.01967000582837) scale(1)" fill="none" stroke="black" fill-opacity="1"><rect width="15" height="15"/></g>,<g transform="translate(495.41561296827854, 395.41561296827854) rotate(145.41561296827854) scale(1)" fill="none" stroke="black" fill-opacity="1"><rect width="30" height="30"/></g>,<g transform="translate(433.82830656927194, 383.82830656927194) rotate(83.82830656927196) scale(1)" fill="none" stroke="black" fill-opacity="1"><rect width="30" height="30"/></g>,<g transform="translate(452.6171342494021, 452.6171342494021) rotate(102.61713424940213) scale(1)" fill="none" stroke="black" fill-opacity="1"><rect width="30" height="30"/></g>,<g transform="translate(564.1031291137733, 564.1031291137733) rotate(206.60312911377338) scale(1)" fill="none" stroke="black" fill-opacity="1"><rect width="15" height="15"/></g>,<g transform="translate(511.90806092477, 561.90806092477) rotate(-161.90806092476996) scale(1)" fill="none" stroke="black" fill-opacity="1"><rect width="30" height="30"/></g>,<g transform="translate(431.8030059518368, 481.8030059518368) rotate(74.30300595183681) scale(1)" fill="none" stroke="black" fill-opacity="1"><rect width="15" height="15"/></g>,<g transform="translate(728.8316326790346, 778.8316326790346) rotate(367.58163267903456) scale(1)" fill="none" stroke="black" fill-opacity="1"><rect width="7.5" height="7.5"/></g>,<g transform="translate(386.59679575800686, 486.59679575800686) rotate(36.596795758006856) scale(1)" fill="none" stroke="black" fill-opacity="1"><rect width="30" height="30"/></g>,<g transform="translate(400, 0) rotate(0) scale(1)" fill="none" stroke="black" fill-opacity="1"><rect width="30" height="30"/></g>,<g transform="translate(414.3350503792531, 14.335050379253119) rotate(6.8350503792531185) scale(1)" fill="none" stroke="black" fill-opacity="1"><rect width="15" height="15"/></g>,<g transform="translate(419.08325534763566, 19.08325534763566) rotate(-7.833255347635661) scale(1)" fill="none" stroke="black" fill-opacity="1"><rect width="7.5" height="7.5"/></g>,<g transform="translate(427.8851111994251, 27.885111199425133) rotate(-14.76011119942513) scale(1)" fill="none" stroke="black" fill-opacity="1"><rect width="3.75" height="3.75"/></g>,<g transform="translate(420.335700705099, 70.335700705099) rotate(20.335700705099004) scale(1)" fill="none" stroke="black" fill-opacity="1"><rect width="30" height="30"/></g>,<g transform="translate(453.68705483648966, 153.68705483648966) rotate(53.687054836489665) scale(1)" fill="none" stroke="black" fill-opacity="1"><rect width="30" height="30"/></g>,<g transform="translate(444.58413430180184, 144.58413430180184) rotate(-37.084134301801825) scale(1)" fill="none" stroke="black" fill-opacity="1"><rect width="15" height="15"/></g>,<g transform="translate(448.2387932940277, 198.2387932940277) rotate(48.23879329402768) scale(1)" fill="none" stroke="black" fill-opacity="1"><rect width="30" height="30"/></g>,<g transform="translate(439.2513014247149, 189.25130142471488) rotate(31.751301424714878) scale(1)" fill="none" stroke="black" fill-opacity="1"><rect width="15" height="15"/></g>,<g transform="translate(522.5293807651881, 272.5293807651881) rotate(111.27938076518807) scale(1)" fill="none" stroke="black" fill-opacity="1"><rect width="7.5" height="7.5"/></g>,<g transform="translate(430.1118095679222, 180.1118095679222) rotate(-16.98680956792218) scale(1)" fill="none" stroke="black" fill-opacity="1"><rect width="3.75" height="3.75"/></g>,<g transform="translate(411.60334499089606, 211.60334499089606) rotate(11.603344990896069) scale(1)" fill="none" stroke="black" fill-opacity="1"><rect width="30" height="30"/></g>,<g transform="translate(496.140937068729, 296.140937068729) rotate(-88.64093706872897) scale(1)" fill="none" stroke="black" fill-opacity="1"><rect width="15" height="15"/></g>,<g transform="translate(554.0304809366046, 354.03048093660453) rotate(142.78048093660453) scale(1)" fill="none" stroke="black" fill-opacity="1"><rect width="7.5" height="7.5"/></g>,<g transform="translate(416.2584071263373, 266.2584071263373) rotate(16.258407126337296) scale(1)" fill="none" stroke="black" fill-opacity="1"><rect width="30" height="30"/></g>,<g transform="translate(606.9219851378273, 456.9219851378272) rotate(199.42198513782722) scale(1)" fill="none" stroke="black" fill-opacity="1"><rect width="15" height="15"/></g>,<g transform="translate(424.11219879628874, 324.11219879628874) rotate(-24.11219879628873) scale(1)" fill="none" stroke="black" fill-opacity="1"><rect width="30" height="30"/></g>,<g transform="translate(560.9928534036812, 460.99285340368124) rotate(153.49285340368127) scale(1)" fill="none" stroke="black" fill-opacity="1"><rect width="15" height="15"/></g>,<g transform="translate(460.7243363285289, 360.7243363285289) rotate(-49.47433632852894) scale(1)" fill="none" stroke="black" fill-opacity="1"><rect width="7.5" height="7.5"/></g>,<g transform="translate(629.3658719577938, 529.3658719577938) rotate(-216.2408719577938) scale(1)" fill="none" stroke="black" fill-opacity="1"><rect width="3.75" height="3.75"/></g>,<g transform="translate(579.4895079601367, 529.4895079601367) rotate(179.48950796013676) scale(1)" fill="none" stroke="black" fill-opacity="1"><rect width="30" height="30"/></g>,<g transform="translate(712.0708831060698, 662.0708831060698) rotate(304.5708831060698) scale(1)" fill="none" stroke="black" fill-opacity="1"><rect width="15" height="15"/></g>,<g transform="translate(668.8885672221824, 668.8885672221824) rotate(268.88856722218236) scale(1)" fill="none" stroke="black" fill-opacity="1"><rect width="30" height="30"/></g>,<g transform="translate(645.443447924061, 645.443447924061) rotate(237.94344792406102) scale(1)" fill="none" stroke="black" fill-opacity="1"><rect width="15" height="15"/></g>,<g transform="translate(788.9455662163141, 788.9455662163141) rotate(-377.69556621631415) scale(1)" fill="none" stroke="black" fill-opacity="1"><rect width="7.5" height="7.5"/></g>,<g transform="translate(547.0277454134965, 597.0277454134965) rotate(147.02774541349652) scale(1)" fill="none" stroke="black" fill-opacity="1"><rect width="30" height="30"/></g>,<g transform="translate(682.6359002693036, 732.6359002693036) rotate(-275.13590026930365) scale(1)" fill="none" stroke="black" fill-opacity="1"><rect width="15" height="15"/></g>,<g transform="translate(418.7666754614369, 468.7666754614369) rotate(-7.516675461436892) scale(1)" fill="none" stroke="black" fill-opacity="1"><rect width="7.5" height="7.5"/></g>,<g transform="translate(806.0644078747553, 856.0644078747553) rotate(-392.93940787475526) scale(1)" fill="none" stroke="black" fill-opacity="1"><rect width="3.75" height="3.75"/></g>,<g transform="translate(450, 0) rotate(0) scale(1)" fill="none" stroke="black" fill-opacity="1"><rect width="30" height="30"/></g>,<g transform="translate(460.6589554620926, 10.6589554620926) rotate(3.1589554620926) scale(1)" fill="none" stroke="black" fill-opacity="1"><rect width="15" height="15"/></g>,<g transform="translate(471.5046199955333, 21.50461999553331) rotate(-10.25461999553331) scale(1)" fill="none" stroke="black" fill-opacity="1"><rect width="7.5" height="7.5"/></g>,<g transform="translate(466.197266415294, 16.197266415294006) rotate(-3.0722664152940062) scale(1)" fill="none" stroke="black" fill-opacity="1"><rect width="3.75" height="3.75"/></g>,<g transform="translate(469.71256395814135, 69.71256395814136) rotate(19.71256395814136) scale(1)" fill="none" stroke="black" fill-opacity="1"><rect width="30" height="30"/></g>,<g transform="translate(469.4227608997616, 69.42276089976161) rotate(-11.92276089976162) scale(1)" fill="none" stroke="black" fill-opacity="1"><rect width="15" height="15"/></g>,<g transform="translate(477.25610224981364, 127.25610224981364) rotate(27.256102249813644) scale(1)" fill="none" stroke="black" fill-opacity="1"><rect width="30" height="30"/></g>,<g transform="translate(507.67438375857733, 157.67438375857733) rotate(-50.17438375857733) scale(1)" fill="none" stroke="black" fill-opacity="1"><rect width="15" height="15"/></g>,<g transform="translate(505.1661303573529, 205.16613035735296) rotate(55.16613035735295) scale(1)" fill="none" stroke="black" fill-opacity="1"><rect width="30" height="30"/></g>,<g transform="translate(598.9957745723954, 298.99577457239536) rotate(-141.4957745723954) scale(1)" fill="none" stroke="black" fill-opacity="1"><rect width="15" height="15"/></g>,<g transform="translate(518.4551235068858, 268.4551235068858) rotate(68.45512350688577) scale(1)" fill="none" stroke="black" fill-opacity="1"><rect width="30" height="30"/></g>,<g transform="translate(643.6989359294336, 393.69893592943356) rotate(186.19893592943356) scale(1)" fill="none" stroke="black" fill-opacity="1"><rect width="15" height="15"/></g>,<g transform="translate(569.8184088637809, 319.8184088637808) rotate(108.56840886378082) scale(1)" fill="none" stroke="black" fill-opacity="1"><rect width="7.5" height="7.5"/></g>,<g transform="translate(516.0207456943465, 266.0207456943465) rotate(-52.89574569434651) scale(1)" fill="none" stroke="black" fill-opacity="1"><rect width="3.75" height="3.75"/></g>,<g transform="translate(601.289981870164, 401.289981870164) rotate(-151.289981870164) scale(1)" fill="none" stroke="black" fill-opacity="1"><rect width="30" height="30"/></g>,<g transform="translate(561.9499968911363, 411.94999689113627) rotate(-111.94999689113625) scale(1)" fill="none" stroke="black" fill-opacity="1"><rect width="30" height="30"/></g>,<g transform="translate(595.6209136002874, 445.62091360028734) rotate(138.12091360028734) scale(1)" fill="none" stroke="black" fill-opacity="1"><rect width="15" height="15"/></g>,<g transform="translate(787.6318464124399, 637.6318464124399) rotate(-326.38184641244) scale(1)" fill="none" stroke="black" fill-opacity="1"><rect width="7.5" height="7.5"/></g>,<g transform="translate(642.8128203363013, 542.8128203363013) rotate(-192.81282033630134) scale(1)" fill="none" stroke="black" fill-opacity="1"><rect width="30" height="30"/></g>,<g transform="translate(468.94827140651313, 368.94827140651313) rotate(-11.44827140651312) scale(1)" fill="none" stroke="black" fill-opacity="1"><rect width="15" height="15"/></g>,<g transform="translate(638.4694609740961, 538.4694609740961) rotate(177.21946097409608) scale(1)" fill="none" stroke="black" fill-opacity="1"><rect width="7.5" height="7.5"/></g>,<g transform="translate(791.9339321344594, 691.9339321344594) rotate(328.80893213445944) scale(1)" fill="none" stroke="black" fill-opacity="1"><rect width="3.75" height="3.75"/></g>,<g transform="translate(520.8398636488447, 470.8398636488447) rotate(-70.8398636488447) scale(1)" fill="none" stroke="black" fill-opacity="1"><rect width="30" height="30"/></g>,<g transform="translate(680.5607219506123, 680.5607219506123) rotate(230.56072195061233) scale(1)" fill="none" stroke="black" fill-opacity="1"><rect width="30" height="30"/></g>,<g transform="translate(538.0680285820765, 538.0680285820765) rotate(80.56802858207651) scale(1)" fill="none" stroke="black" fill-opacity="1"><rect width="15" height="15"/></g>,<g transform="translate(474.78991945556567, 474.78991945556567) rotate(13.53991945556569) scale(1)" fill="none" stroke="black" fill-opacity="1"><rect width="7.5" height="7.5"/></g>,<g transform="translate(762.9051293787858, 762.9051293787858) rotate(299.7801293787858) scale(1)" fill="none" stroke="black" fill-opacity="1"><rect width="3.75" height="3.75"/></g></g>
            </svg>