
            <svg width="100%" height="100%" viewBox="0 0 500 500">
                <g> <g transform="translate(0, 0) rotate(0) scale(1)" fill="none" stroke="black" fill-opacity="1"><rect width="50" height="50"/></g>,<g transform="translate(1.2429634916557502, 51.24296349165575) rotate(1.2429634916557502) scale(1)" fill="none" stroke="black" fill-opacity="1"><rect width="50" height="50"/></g>,<g transform="translate(3.403577951571515, 103.40357795157152) rotate(3.403577951571515) scale(1)" fill="none" stroke="black" fill-opacity="1"><rect width="50" height="50"/></g>,<g transform="translate(3.793733116853778, 153.7937331168538) rotate(3.793733116853778) scale(1)" fill="none" stroke="black" fill-opacity="1"><rect width="50" height="50"/></g>,<g transform="translate(2.687527300826541, 202.68752730082653) rotate(2.687527300826541) scale(1)" fill="none" stroke="black" fill-opacity="1"><rect width="50" height="50"/></g>,<g transform="translate(19.568411842918913, 269.5684118429189) rotate(19.568411842918913) scale(1)" fill="none" stroke="black" fill-opacity="1"><rect width="50" height="50"/></g>,<g transform="translate(16.334093918241642, 316.33409391824165) rotate(16.334093918241642) scale(1)" fill="none" stroke="black" fill-opacity="1"><rect width="50" height="50"/></g>,<g transform="translate(26.7809701936871, 376.7809701936871) rotate(26.7809701936871) scale(1)" fill="none" stroke="black" fill-opacity="1"><rect width="50" height="50"/></g>,<g transform="translate(24.065515858046204, 424.0655158580462) rotate(24.065515858046204) scale(1)" fill="none" stroke="black" fill-opacity="1"><rect width="50" height="50"/></g>,<g transform="translate(23.642744100464512, 473.6427441004645) rotate(23.642744100464512) scale(1)" fill="none" stroke="black" fill-opacity="1"><rect width="50" height="50"/></g>,<g transform="translate(50, 0) rotate(0) scale(1)" fill="none" stroke="black" fill-opacity="1"><rect width="50" height="50"/></g>,<g transform="translate(51.37761636406717, 51.37761636406717) rotate(-1.3776163640671715) scale(1)" fill="none" stroke="black" fill-opacity="1"><rect width="50" height="50"/></g>,<g transform="translate(57.40713958199382, 107.40713958199382) rotate(7.407139581993816) scale(1)" fill="none" stroke="black" fill-opacity="1"><rect width="50" height="50"/></g>,<g transform="translate(66.19384658857606, 166.19384658857606) rotate(16.193846588576065) scale(1)" fill="none" stroke="black" fill-opacity="1"><rect width="50" height="50"/></g>,<g transform="translate(71.32360732915743, 221.32360732915743) rotate(21.323607329157426) scale(1)" fill="none" stroke="black" fill-opacity="1"><rect width="50" height="50"/></g>,<g transform="translate(53.548665766171624, 253.54866576617164) rotate(3.5486657661716263) scale(1)" fill="none" stroke="black" fill-opacity="1"><rect width="50" height="50"/></g>,<g transform="translate(81.90671921182617, 331.90671921182616) rotate(31.906719211826168) scale(1)" fill="none" stroke="black" fill-opacity="1"><rect width="50" height="50"/></g>,<g transform="translate(82.42298043862044, 382.42298043862047) rotate(32.42298043862044) scale(1)" fill="none" stroke="black" fill-opacity="1"><rect width="50" height="50"/></g>,<g transform="translate(68.9777250706424, 418.9777250706424) rotate(-18.977725070642414) scale(1)" fill="none" stroke="black" fill-opacity="1"><rect width="50" height="50"/></g>,<g transform="translate(69.10657833704099, 469.10657833704096) rotate(-19.10657833704098) scale(1)" fill="none" stroke="black" fill-opacity="1"><rect width="50" height="50"/></g>,<g transform="translate(100, 0) rotate(0) scale(1)" fill="none" stroke="black" fill-opacity="1"><rect width="50" height="50"/></g>,<g transform="translate(100.75272941827154, 50.75272941827155) rotate(0.7527294182715472) scale(1)" fill="none" stroke="black" fill-opacity="1"><rect width="50" height="50"/></g>,<g transform="translate(108.92731800336202, 108.92731800336202) rotate(8.927318003362018) scale(1)" fill="none" stroke="black" fill-opacity="1"><rect width="50" height="50"/></g>,<g transform="translate(101.33554982158155, 151.33554982158154) rotate(1.3355498215815498) scale(1)" fill="none" stroke="black" fill-opacity="1"><rect width="50" height="50"/></g>,<g transform="translate(104.7549949199098, 204.7549949199098) rotate(4.754994919909805) scale(1)" fill="none" stroke="black" fill-opacity="1"><rect width="50" height="50"/></g>,<g transform="translate(117.91660536938994, 267.91660536938997) rotate(-17.91660536938995) scale(1)" fill="none" stroke="black" fill-opacity="1"><rect width="50" height="50"/></g>,<g transform="translate(118.853592076485, 318.853592076485) rotate(-18.853592076484997) scale(1)" fill="none" stroke="black" fill-opacity="1"><rect width="50" height="50"/></g>,<g transform="translate(120.61037344217029, 370.61037344217027) rotate(-20.610373442170285) scale(1)" fill="none" stroke="black" fill-opacity="1"><rect width="50" height="50"/></g>,<g transform="translate(105.71394455754559, 405.7139445575456) rotate(5.713944557545592) scale(1)" fill="none" stroke="black" fill-opacity="1"><rect width="50" height="50"/></g>,<g transform="translate(126.82311310984437, 476.82311310984437) rotate(-26.82311310984438) scale(1)" fill="none" stroke="black" fill-opacity="1"><rect width="50" height="50"/></g>,<g transform="translate(150, 0) rotate(0) scale(1)" fill="none" stroke="black" fill-opacity="1"><rect width="50" height="50"/></g>,<g transform="translate(151.83984401445326, 51.83984401445327) rotate(-1.8398440144532724) scale(1)" fill="none" stroke="black" fill-opacity="1"><rect width="50" height="50"/></g>,<g transform="translate(156.79402855067295, 106.79402855067293) rotate(6.794028550672936) scale(1)" fill="none" stroke="black" fill-opacity="1"><rect width="50" height="50"/></g>,<g transform="translate(154.20030920905384, 154.20030920905384) rotate(4.2003092090538505) scale(1)" fill="none" stroke="black" fill-opacity="1"><rect width="50" height="50"/></g>,<g transform="translate(154.96227886202138, 204.96227886202138) rotate(-4.962278862021371) scale(1)" fill="none" stroke="black" fill-opacity="1"><rect width="50" height="50"/></g>,<g transform="translate(150.2642985433575, 250.2642985433575) rotate(-0.2642985433575218) scale(1)" fill="none" stroke="black" fill-opacity="1"><rect width="50" height="50"/></g>,<g transform="translate(175.1895931888137, 325.18959318881366) rotate(25.189593188813685) scale(1)" fill="none" stroke="black" fill-opacity="1"><rect width="50" height="50"/></g>,<g transform="translate(171.6863337387263, 371.68633373872626) rotate(21.686333738726283) scale(1)" fill="none" stroke="black" fill-opacity="1"><rect width="50" height="50"/></g>,<g transform="translate(181.46337394611572, 431.4633739461157) rotate(31.46337394611573) scale(1)" fill="none" stroke="black" fill-opacity="1"><rect width="50" height="50"/></g>,<g transform="translate(169.55392977064207, 469.55392977064207) rotate(-19.553929770642075) scale(1)" fill="none" stroke="black" fill-opacity="1"><rect width="50" height="50"/></g>,<g transform="translate(200, 0) rotate(0) scale(1)" fill="none" stroke="black" fill-opacity="1"><rect width="50" height="50"/></g>,<g transform="translate(203.90694026287488, 53.90694026287487) rotate(3.906940262874872) scale(1)" fill="none" stroke="black" fill-opacity="1"><rect width="50" height="50"/></g>,<g transform="translate(207.44211765828481, 107.44211765828483) rotate(7.4421176582848245) scale(1)" fill="none" stroke="black" fill-opacity="1"><rect width="50" height="50"/></g>,<g transform="translate(215.34685713740117, 165.34685713740117) rotate(-15.346857137401159) scale(1)" fill="none" stroke="black" fill-opacity="1"><rect width="50" height="50"/></g>,<g transform="translate(203.69411199373846, 203.69411199373846) rotate(3.6941119937384532) scale(1)" fill="none" stroke="black" fill-opacity="1"><rect width="50" height="50"/></g>,<g transform="translate(219.76270189424136, 269.76270189424133) rotate(19.762701894241353) scale(1)" fill="none" stroke="black" fill-opacity="1"><rect width="50" height="50"/></g>,<g transform="translate(227.40305543362794, 327.40305543362797) rotate(27.403055433627948) scale(1)" fill="none" stroke="black" fill-opacity="1"><rect width="50" height="50"/></g>,<g transform="translate(220.56527564818077, 370.5652756481808) rotate(-20.565275648180766) scale(1)" fill="none" stroke="black" fill-opacity="1"><rect width="50" height="50"/></g>,<g transform="translate(207.9409109183729, 407.9409109183729) rotate(7.940910918372898) scale(1)" fill="none" stroke="black" fill-opacity="1"><rect width="50" height="50"/></g>,<g transform="translate(225.57953846383168, 475.5795384638317) rotate(25.579538463831696) scale(1)" fill="none" stroke="black" fill-opacity="1"><rect width="50" height="50"/></g>,<g transform="translate(250, 0) rotate(0) scale(1)" fill="none" stroke="black" fill-opacity="1"><rect width="50" height="50"/></g>,<g transform="translate(250.32549932386797, 50.32549932386798) rotate(-0.3254993238679776) scale(1)" fill="none" stroke="black" fill-opacity="1"><rect width="50" height="50"/></g>,<g transform="translate(257.27026866425933, 107.27026866425932) rotate(-7.270268664259321) scale(1)" fill="none" stroke="black" fill-opacity="1"><rect width="50" height="50"/></g>,<g transform="translate(250.43461582224077, 150.43461582224077) rotate(0.4346158222407803) scale(1)" fill="none" stroke="black" fill-opacity="1"><rect width="50" height="50"/></g>,<g transform="translate(268.5880208528157, 218.58802085281573) rotate(-18.588020852815724) scale(1)" fill="none" stroke="black" fill-opacity="1"><rect width="50" height="50"/></g>,<g transform="translate(253.57590983593374, 253.57590983593374) rotate(3.5759098359337487) scale(1)" fill="none" stroke="black" fill-opacity="1"><rect width="50" height="50"/></g>,<g transform="translate(250.13465803761315, 300.1346580376132) rotate(0.13465803761315195) scale(1)" fill="none" stroke="black" fill-opacity="1"><rect width="50" height="50"/></g>,<g transform="translate(276.9690187136249, 376.9690187136249) rotate(26.969018713624912) scale(1)" fill="none" stroke="black" fill-opacity="1"><rect width="50" height="50"/></g>,<g transform="translate(285.40424187074507, 435.40424187074507) rotate(35.40424187074506) scale(1)" fill="none" stroke="black" fill-opacity="1"><rect width="50" height="50"/></g>,<g transform="translate(262.2254606460782, 462.2254606460782) rotate(-12.2254606460782) scale(1)" fill="none" stroke="black" fill-opacity="1"><rect width="50" height="50"/></g>,<g transform="translate(300, 0) rotate(0) scale(1)" fill="none" stroke="black" fill-opacity="1"><rect width="50" height="50"/></g>,<g transform="translate(302.6195791761293, 52.61957917612932) rotate(-2.6195791761293203) scale(1)" fill="none" stroke="black" fill-opacity="1"><rect width="50" height="50"/></g>,<g transform="translate(309.1504726780738, 109.15047267807384) rotate(-9.150472678073834) scale(1)" fill="none" stroke="black" fill-opacity="1"><rect width="50" height="50"/></g>,<g transform="translate(307.5592527077889, 157.5592527077889) rotate(7.559252707788888) scale(1)" fill="none" stroke="black" fill-opacity="1"><rect width="50" height="50"/></g>,<g transform="translate(302.3024587190344, 202.30245871903438) rotate(2.3024587190343837) scale(1)" fill="none" stroke="black" fill-opacity="1"><rect width="50" height="50"/></g>,<g transform="translate(319.0365378786712, 269.0365378786712) rotate(19.03653787867119) scale(1)" fill="none" stroke="black" fill-opacity="1"><rect width="50" height="50"/></g>,<g transform="translate(316.35202570026007, 316.35202570026007) rotate(-16.352025700260064) scale(1)" fill="none" stroke="black" fill-opacity="1"><rect width="50" height="50"/></g>,<g transform="translate(321.92300629919043, 371.92300629919043) rotate(21.923006299190458) scale(1)" fill="none" stroke="black" fill-opacity="1"><rect width="50" height="50"/></g>,<g transform="translate(339.0123902564939, 439.0123902564939) rotate(-39.01239025649394) scale(1)" fill="none" stroke="black" fill-opacity="1"><rect width="50" height="50"/></g>,<g transform="translate(321.7169483361684, 471.7169483361684) rotate(-21.716948336168418) scale(1)" fill="none" stroke="black" fill-opacity="1"><rect width="50" height="50"/></g>,<g transform="translate(350, 0) rotate(0) scale(1)" fill="none" stroke="black" fill-opacity="1"><rect width="50" height="50"/></g>,<g transform="translate(350.0462085499025, 50.04620854990249) rotate(-0.04620854990248841) scale(1)" fill="none" stroke="black" fill-opacity="1"><rect width="50" height="50"/></g>,<g transform="translate(353.2727192987078, 103.27271929870776) rotate(3.272719298707763) scale(1)" fill="none" stroke="black" fill-opacity="1"><rect width="50" height="50"/></g>,<g transform="translate(366.3671330570664, 166.36713305706638) rotate(-16.367133057066386) scale(1)" fill="none" stroke="black" fill-opacity="1"><rect width="50" height="50"/></g>,<g transform="translate(350.699188345608, 200.699188345608) rotate(0.6991883456080039) scale(1)" fill="none" stroke="black" fill-opacity="1"><rect width="50" height="50"/></g>,<g transform="translate(363.1708283913531, 263.1708283913531) rotate(-13.170828391353101) scale(1)" fill="none" stroke="black" fill-opacity="1"><rect width="50" height="50"/></g>,<g transform="translate(357.1512186390978, 307.1512186390978) rotate(-7.151218639097823) scale(1)" fill="none" stroke="black" fill-opacity="1"><rect width="50" height="50"/></g>,<g transform="translate(366.7701219003693, 366.7701219003693) rotate(-16.77012190036932) scale(1)" fill="none" stroke="black" fill-opacity="1"><rect width="50" height="50"/></g>,<g transform="translate(366.91477653043637, 416.91477653043637) rotate(-16.91477653043635) scale(1)" fill="none" stroke="black" fill-opacity="1"><rect width="50" height="50"/></g>,<g transform="translate(356.97285411752466, 456.97285411752466) rotate(6.972854117524663) scale(1)" fill="none" stroke="black" fill-opacity="1"><rect width="50" height="50"/></g>,<g transform="translate(400, 0) rotate(0) scale(1)" fill="none" stroke="black" fill-opacity="1"><rect width="50" height="50"/></g>,<g transform="translate(403.7775577933248, 53.77755779332477) rotate(3.7775577933247706) scale(1)" fill="none" stroke="black" fill-opacity="1"><rect width="50" height="50"/></g>,<g transform="translate(403.0594021886086, 103.05940218860857) rotate(3.0594021886085745) scale(1)" fill="none" stroke="black" fill-opacity="1"><rect width="50" height="50"/></g>,<g transform="translate(401.9093395981588, 151.90933959815877) rotate(1.9093395981587769) scale(1)" fill="none" stroke="black" fill-opacity="1"><rect width="50" height="50"/></g>,<g transform="translate(403.7812620605393, 203.7812620605393) rotate(-3.7812620605392984) scale(1)" fill="none" stroke="black" fill-opacity="1"><rect width="50" height="50"/></g>,<g transform="translate(411.65253440746545, 261.65253440746545) rotate(11.652534407465449) scale(1)" fill="none" stroke="black" fill-opacity="1"><rect width="50" height="50"/></g>,<g transform="translate(421.9024509309339, 321.9024509309339) rotate(-21.902450930933913) scale(1)" fill="none" stroke="black" fill-opacity="1"><rect width="50" height="50"/></g>,<g transform="translate(416.9102455713528, 366.9102455713528) rotate(-16.910245571352803) scale(1)" fill="none" stroke="black" fill-opacity="1"><rect width="50" height="50"/></g>,<g transform="translate(435.03791551065723, 435.03791551065723) rotate(-35.03791551065723) scale(1)" fill="none" stroke="black" fill-opacity="1"><rect width="50" height="50"/></g>,<g transform="translate(442.4522533254797, 492.4522533254797) rotate(42.45225332547971) scale(1)" fill="none" stroke="black" fill-opacity="1"><rect width="50" height="50"/></g>,<g transform="translate(450, 0) rotate(0) scale(1)" fill="none" stroke="black" fill-opacity="1"><rect width="50" height="50"/></g>,<g transform="translate(453.12604426490367, 53.12604426490364) rotate(-3.126044264903644) scale(1)" fill="none" stroke="black" fill-opacity="1"><rect width="50" height="50"/></g>,<g transform="translate(459.1382900685847, 109.13829006858471) rotate(-9.138290068584705) scale(1)" fill="none" stroke="black" fill-opacity="1"><rect width="50" height="50"/></g>,<g transform="translate(452.03334145341586, 152.03334145341583) rotate(2.0333414534158343) scale(1)" fill="none" stroke="black" fill-opacity="1"><rect width="50" height="50"/></g>,<g transform="translate(470.1853516520496, 220.1853516520496) rotate(20.185351652049594) scale(1)" fill="none" stroke="black" fill-opacity="1"><rect width="50" height="50"/></g>,<g transform="translate(475.7243051494932, 275.7243051494932) rotate(25.724305149493198) scale(1)" fill="none" stroke="black" fill-opacity="1"><rect width="50" height="50"/></g>,<g transform="translate(461.69407801556173, 311.69407801556173) rotate(11.69407801556172) scale(1)" fill="none" stroke="black" fill-opacity="1"><rect width="50" height="50"/></g>,<g transform="translate(471.88895807341555, 371.88895807341555) rotate(-21.88895807341554) scale(1)" fill="none" stroke="black" fill-opacity="1"><rect width="50" height="50"/></g>,<g transform="translate(471.74543613377614, 421.74543613377614) rotate(-21.745436133776153) scale(1)" fill="none" stroke="black" fill-opacity="1"><rect width="50" height="50"/></g>,<g transform="translate(465.8810868210039, 465.8810868210039) rotate(15.881086821003908) scale(1)" fill="none" stroke="black" fill-opacity="1"><rect width="50" height="50"/></g></g>
            </svg>