
            <svg width="100%" height="100%" viewBox="0 0 500 500">
                <g> <g transform="translate(0, 0) rotate(0) scale(0)" fill="none" stroke="#2459F5" fill-opacity="1"><rect width="30" height="30"/></g>,<g transform="translate(11.831878028839824, 11.831878028839824) rotate(4.331878028839824) scale(0.02830188679245283)" fill="none" stroke="#48EFA9" fill-opacity="1"><rect width="15" height="15"/></g>,<g transform="translate(20.89639947132196, 20.89639947132196) rotate(9.64639947132196) scale(0.043689320388349516)" fill="none" stroke="#50A86C" fill-opacity="1"><rect width="7.5" height="7.5"/></g>,<g transform="translate(22.450380405042942, 22.450380405042942) rotate(9.32538040504294) scale(0.05172413793103448)" fill="none" stroke="#F88943" fill-opacity="1"><rect width="3.75" height="3.75"/></g>,<g transform="translate(26.757168313140202, 76.7571683131402) rotate(26.757168313140202) scale(0.17857142857142858)" fill="none" stroke="#7548CB" fill-opacity="1"><rect width="30" height="30"/></g>,<g transform="translate(53.672778568230626, 153.67277856823063) rotate(53.672778568230626) scale(0.35714285714285715)" fill="none" stroke="#B8C7A8" fill-opacity="1"><rect width="30" height="30"/></g>,<g transform="translate(65.50819784654178, 165.50819784654178) rotate(58.00819784654178) scale(0.4056603773584906)" fill="none" stroke="#F9B93F" fill-opacity="1"><rect width="15" height="15"/></g>,<g transform="translate(72.65889465727015, 222.65889465727014) rotate(72.65889465727015) scale(0.5357142857142857)" fill="none" stroke="#963AA2" fill-opacity="1"><rect width="30" height="30"/></g>,<g transform="translate(85.41256303509486, 235.41256303509488) rotate(77.91256303509486) scale(0.5943396226415094)" fill="none" stroke="#4728B6" fill-opacity="1"><rect width="15" height="15"/></g>,<g transform="translate(62.89345055651188, 262.8934505565119) rotate(-62.89345055651188) scale(0.7142857142857143)" fill="none" stroke="#B4E2F8" fill-opacity="1"><rect width="30" height="30"/></g>,<g transform="translate(114.40692660599099, 314.406926605991) rotate(106.90692660599099) scale(0.7830188679245284)" fill="none" stroke="#D0FB15" fill-opacity="1"><rect width="15" height="15"/></g>,<g transform="translate(2.582964007064408, 252.58296400706442) rotate(-2.582964007064408) scale(0.8928571428571429)" fill="none" stroke="#E5BC5A" fill-opacity="1"><rect width="30" height="30"/></g>,<g transform="translate(69.09467778358339, 319.0946777835834) rotate(61.5946777835834) scale(0.9716981132075472)" fill="none" stroke="#C1EA3F" fill-opacity="1"><rect width="15" height="15"/></g>,<g transform="translate(25.22990565015342, 275.2299056501534) rotate(13.97990565015342) scale(1.0145631067961165)" fill="none" stroke="#92F64A" fill-opacity="1"><rect width="7.5" height="7.5"/></g>,<g transform="translate(131.76574484021, 381.76574484021) rotate(-118.64074484021002) scale(1.0369458128078817)" fill="none" stroke="#08A388" fill-opacity="1"><rect width="3.75" height="3.75"/></g>,<g transform="translate(143.22276043444006, 443.22276043444003) rotate(-143.22276043444006) scale(1.0714285714285714)" fill="none" stroke="#759062" fill-opacity="1"><rect width="30" height="30"/></g>,<g transform="translate(97.55258016970913, 397.55258016970913) rotate(90.05258016970913) scale(1.1603773584905661)" fill="none" stroke="#29277D" fill-opacity="1"><rect width="15" height="15"/></g>,<g transform="translate(104.0306041022954, 454.0306041022954) rotate(-104.0306041022954) scale(1.25)" fill="none" stroke="#347134" fill-opacity="1"><rect width="30" height="30"/></g>,<g transform="translate(9.969529390563912, 359.96952939056393) rotate(2.469529390563912) scale(1.349056603773585)" fill="none" stroke="#5E8EDB" fill-opacity="1"><rect width="15" height="15"/></g>,<g transform="translate(141.81534166787665, 541.8153416678766) rotate(-141.81534166787665) scale(1.4285714285714286)" fill="none" stroke="#FBA2AE" fill-opacity="1"><rect width="30" height="30"/></g>,<g transform="translate(320.486593041783, 720.486593041783) rotate(-312.986593041783) scale(1.5377358490566038)" fill="none" stroke="#46F68F" fill-opacity="1"><rect width="15" height="15"/></g>,<g transform="translate(121.46073115742841, 521.4607311574284) rotate(110.21073115742841) scale(1.5970873786407767)" fill="none" stroke="#5E55B6" fill-opacity="1"><rect width="7.5" height="7.5"/></g>,<g transform="translate(375.00458200226444, 775.0045820022644) rotate(361.87958200226444) scale(1.6280788177339902)" fill="none" stroke="#3E4198" fill-opacity="1"><rect width="3.75" height="3.75"/></g>,<g transform="translate(104.48315878993256, 554.4831587899325) rotate(104.48315878993256) scale(1.6071428571428572)" fill="none" stroke="#32BDE7" fill-opacity="1"><rect width="30" height="30"/></g>,<g transform="translate(231.27312779982694, 681.273127799827) rotate(-223.77312779982694) scale(1.7264150943396226)" fill="none" stroke="#57825B" fill-opacity="1"><rect width="15" height="15"/></g>,<g transform="translate(50, 0) rotate(0) scale(0)" fill="none" stroke="#7A1FB9" fill-opacity="1"><rect width="30" height="30"/></g>,<g transform="translate(57.867995597865495, 7.867995597865492) rotate(-0.36799559786549146) scale(0.02830188679245283)" fill="none" stroke="#26BEE9" fill-opacity="1"><rect width="15" height="15"/></g>,<g transform="translate(72.98398152373112, 22.98398152373112) rotate(-11.73398152373112) scale(0.043689320388349516)" fill="none" stroke="#A28B08" fill-opacity="1"><rect width="7.5" height="7.5"/></g>,<g transform="translate(55.10151040866853, 55.10151040866853) rotate(-5.101510408668532) scale(0.17857142857142858)" fill="none" stroke="#870F09" fill-opacity="1"><rect width="30" height="30"/></g>,<g transform="translate(90.30616574637904, 90.30616574637904) rotate(-32.806165746379044) scale(0.2169811320754717)" fill="none" stroke="#8AEC45" fill-opacity="1"><rect width="15" height="15"/></g>,<g transform="translate(87.93310863310398, 137.93310863310398) rotate(37.93310863310399) scale(0.35714285714285715)" fill="none" stroke="#39BCE6" fill-opacity="1"><rect width="30" height="30"/></g>,<g transform="translate(124.3079198564128, 174.3079198564128) rotate(-66.8079198564128) scale(0.4056603773584906)" fill="none" stroke="#6FC3E1" fill-opacity="1"><rect width="15" height="15"/></g>,<g transform="translate(91.06786691567538, 191.06786691567538) rotate(-41.06786691567539) scale(0.5357142857142857)" fill="none" stroke="#D020DF" fill-opacity="1"><rect width="30" height="30"/></g>,<g transform="translate(196.29613006888545, 296.2961300688854) rotate(-138.79613006888545) scale(0.5943396226415094)" fill="none" stroke="#26D4D0" fill-opacity="1"><rect width="15" height="15"/></g>,<g transform="translate(69.55458201865747, 219.55458201865747) rotate(-19.55458201865747) scale(0.7142857142857143)" fill="none" stroke="#0A96BF" fill-opacity="1"><rect width="30" height="30"/></g>,<g transform="translate(63.06423552475752, 213.06423552475752) rotate(-5.564235524757524) scale(0.7830188679245284)" fill="none" stroke="#9945D0" fill-opacity="1"><rect width="15" height="15"/></g>,<g transform="translate(187.31277759023166, 387.3127775902317) rotate(-137.31277759023166) scale(0.8928571428571429)" fill="none" stroke="#D92BAE" fill-opacity="1"><rect width="30" height="30"/></g>,<g transform="translate(222.66330236932657, 422.6633023693266) rotate(165.16330236932657) scale(0.9716981132075472)" fill="none" stroke="#8CE8CD" fill-opacity="1"><rect width="15" height="15"/></g>,<g transform="translate(168.0266672284642, 368.0266672284642) rotate(-106.77666722846419) scale(1.0145631067961165)" fill="none" stroke="#E69ADA" fill-opacity="1"><rect width="7.5" height="7.5"/></g>,<g transform="translate(106.51993758275657, 306.5199375827566) rotate(-43.39493758275657) scale(1.0369458128078817)" fill="none" stroke="#CF95F1" fill-opacity="1"><rect width="3.75" height="3.75"/></g>,<g transform="translate(66.23617536966839, 316.2361753696684) rotate(16.236175369668395) scale(1.0714285714285714)" fill="none" stroke="#A7B67E" fill-opacity="1"><rect width="30" height="30"/></g>,<g transform="translate(191.52480320548685, 441.5248032054868) rotate(-134.02480320548685) scale(1.1603773584905661)" fill="none" stroke="#E8DC2A" fill-opacity="1"><rect width="15" height="15"/></g>,<g transform="translate(220.1419183444198, 520.1419183444198) rotate(-170.1419183444198) scale(1.25)" fill="none" stroke="#F1D667" fill-opacity="1"><rect width="30" height="30"/></g>,<g transform="translate(261.7437936803823, 561.7437936803823) rotate(-204.24379368038228) scale(1.349056603773585)" fill="none" stroke="#F82851" fill-opacity="1"><rect width="15" height="15"/></g>,<g transform="translate(127.24612351592857, 427.24612351592856) rotate(-65.99612351592857) scale(1.4029126213592233)" fill="none" stroke="#D0D383" fill-opacity="1"><rect width="7.5" height="7.5"/></g>,<g transform="translate(153.74417329376524, 453.74417329376524) rotate(90.61917329376523) scale(1.4310344827586208)" fill="none" stroke="#EB91E2" fill-opacity="1"><rect width="3.75" height="3.75"/></g>,<g transform="translate(284.2891106212542, 634.2891106212542) rotate(234.28911062125422) scale(1.4285714285714286)" fill="none" stroke="#C209AE" fill-opacity="1"><rect width="30" height="30"/></g>,<g transform="translate(76.48682543357779, 426.4868254335778) rotate(18.9868254335778) scale(1.5377358490566038)" fill="none" stroke="#1BFA59" fill-opacity="1"><rect width="15" height="15"/></g>,<g transform="translate(95.83967249509944, 495.8396724950994) rotate(45.839672495099435) scale(1.6071428571428572)" fill="none" stroke="#96E6A5" fill-opacity="1"><rect width="30" height="30"/></g>,<g transform="translate(100, 0) rotate(0) scale(0)" fill="none" stroke="#5C5CBE" fill-opacity="1"><rect width="30" height="30"/></g>,<g transform="translate(107.9524747015117, 7.952474701511702) rotate(0.45247470151170177) scale(0.02830188679245283)" fill="none" stroke="#E9DAB7" fill-opacity="1"><rect width="15" height="15"/></g>,<g transform="translate(120.55150796964037, 70.55150796964037) rotate(20.551507969640376) scale(0.17857142857142858)" fill="none" stroke="#1C11C5" fill-opacity="1"><rect width="30" height="30"/></g>,<g transform="translate(150.48819824144076, 100.48819824144076) rotate(-42.988198241440756) scale(0.2169811320754717)" fill="none" stroke="#A5A210" fill-opacity="1"><rect width="15" height="15"/></g>,<g transform="translate(126.25417191226363, 76.25417191226363) rotate(-15.004171912263624) scale(0.23786407766990292)" fill="none" stroke="#20992A" fill-opacity="1"><rect width="7.5" height="7.5"/></g>,<g transform="translate(162.91083090795183, 112.91083090795183) rotate(-49.78583090795184) scale(0.24876847290640394)" fill="none" stroke="#ECE891" fill-opacity="1"><rect width="3.75" height="3.75"/></g>,<g transform="translate(172.61251545916218, 172.61251545916218) rotate(-72.61251545916218) scale(0.35714285714285715)" fill="none" stroke="#20A97D" fill-opacity="1"><rect width="30" height="30"/></g>,<g transform="translate(169.49822958829617, 169.49822958829617) rotate(-61.99822958829618) scale(0.4056603773584906)" fill="none" stroke="#CBBE39" fill-opacity="1"><rect width="15" height="15"/></g>,<g transform="translate(179.49326400795815, 179.49326400795815) rotate(68.24326400795816) scale(0.4320388349514563)" fill="none" stroke="#630E6D" fill-opacity="1"><rect width="7.5" height="7.5"/></g>,<g transform="translate(217.50925649815827, 217.50925649815827) rotate(104.38425649815827) scale(0.4458128078817734)" fill="none" stroke="#ED55DD" fill-opacity="1"><rect width="3.75" height="3.75"/></g>,<g transform="translate(116.59822912016071, 166.5982291201607) rotate(16.598229120160713) scale(0.5357142857142857)" fill="none" stroke="#11E8CD" fill-opacity="1"><rect width="30" height="30"/></g>,<g transform="translate(127.88687535419234, 177.88687535419234) rotate(-20.386875354192345) scale(0.5943396226415094)" fill="none" stroke="#86BBDC" fill-opacity="1"><rect width="15" height="15"/></g>,<g transform="translate(114.36399843255352, 164.3639984325535) rotate(3.1139984325535086) scale(0.6262135922330098)" fill="none" stroke="#05949E" fill-opacity="1"><rect width="7.5" height="7.5"/></g>,<g transform="translate(265.61078767222784, 315.61078767222784) rotate(152.48578767222787) scale(0.6428571428571429)" fill="none" stroke="#F82251" fill-opacity="1"><rect width="3.75" height="3.75"/></g>,<g transform="translate(222.00131395588937, 322.0013139558894) rotate(122.00131395588936) scale(0.7142857142857143)" fill="none" stroke="#ACC7AA" fill-opacity="1"><rect width="30" height="30"/></g>,<g transform="translate(195.04863814763718, 345.0486381476372) rotate(95.04863814763719) scale(0.8928571428571429)" fill="none" stroke="#BAB5C9" fill-opacity="1"><rect width="30" height="30"/></g>,<g transform="translate(300.3160266367506, 450.3160266367506) rotate(-192.81602663675065) scale(0.9716981132075472)" fill="none" stroke="#ABB0A0" fill-opacity="1"><rect width="15" height="15"/></g>,<g transform="translate(315.7908723884252, 465.7908723884252) rotate(204.5408723884252) scale(1.0145631067961165)" fill="none" stroke="#581AB0" fill-opacity="1"><rect width="7.5" height="7.5"/></g>,<g transform="translate(173.17810682111445, 323.17810682111445) rotate(-60.05310682111445) scale(1.0369458128078817)" fill="none" stroke="#27C1CD" fill-opacity="1"><rect width="3.75" height="3.75"/></g>,<g transform="translate(147.08581540719504, 347.085815407195) rotate(-47.085815407195035) scale(1.0714285714285714)" fill="none" stroke="#214971" fill-opacity="1"><rect width="30" height="30"/></g>,<g transform="translate(265.5399539366264, 465.5399539366264) rotate(-158.03995393662638) scale(1.1603773584905661)" fill="none" stroke="#D878D9" fill-opacity="1"><rect width="15" height="15"/></g>,<g transform="translate(440.6648107014092, 640.6648107014091) rotate(329.4148107014092) scale(1.2087378640776698)" fill="none" stroke="#B7E0D8" fill-opacity="1"><rect width="7.5" height="7.5"/></g>,<g transform="translate(193.58706224410827, 443.58706224410827) rotate(-93.58706224410827) scale(1.25)" fill="none" stroke="#5AE30D" fill-opacity="1"><rect width="30" height="30"/></g>,<g transform="translate(235.79432831276617, 535.7943283127662) rotate(135.79432831276617) scale(1.4285714285714286)" fill="none" stroke="#7D45D2" fill-opacity="1"><rect width="30" height="30"/></g>,<g transform="translate(372.9167947957297, 722.9167947957296) rotate(272.9167947957297) scale(1.6071428571428572)" fill="none" stroke="#657588" fill-opacity="1"><rect width="30" height="30"/></g>,<g transform="translate(501.02197374545153, 851.0219737454515) rotate(-393.52197374545153) scale(1.7264150943396226)" fill="none" stroke="#63970C" fill-opacity="1"><rect width="15" height="15"/></g>,<g transform="translate(459.48604419291377, 809.4860441929138) rotate(-348.23604419291377) scale(1.7912621359223302)" fill="none" stroke="#46A26B" fill-opacity="1"><rect width="7.5" height="7.5"/></g>,<g transform="translate(448.0212619816586, 798.0212619816587) rotate(-334.8962619816586) scale(1.8251231527093597)" fill="none" stroke="#B2D501" fill-opacity="1"><rect width="3.75" height="3.75"/></g>,<g transform="translate(150, 0) rotate(0) scale(0)" fill="none" stroke="#594061" fill-opacity="1"><rect width="30" height="30"/></g>,<g transform="translate(159.09748564964502, 9.097485649645016) rotate(-1.5974856496450165) scale(0.02830188679245283)" fill="none" stroke="#AD3FEA" fill-opacity="1"><rect width="15" height="15"/></g>,<g transform="translate(166.01034157361687, 16.01034157361686) rotate(-4.76034157361686) scale(0.043689320388349516)" fill="none" stroke="#30B6DD" fill-opacity="1"><rect width="7.5" height="7.5"/></g>,<g transform="translate(174.93126397754278, 24.93126397754279) rotate(11.806263977542791) scale(0.05172413793103448)" fill="none" stroke="#5A6074" fill-opacity="1"><rect width="3.75" height="3.75"/></g>,<g transform="translate(156.73822526775174, 56.738225267751744) rotate(6.738225267751747) scale(0.17857142857142858)" fill="none" stroke="#8E95AF" fill-opacity="1"><rect width="30" height="30"/></g>,<g transform="translate(206.6933714398039, 156.6933714398039) rotate(-56.693371439803904) scale(0.35714285714285715)" fill="none" stroke="#6D1ECB" fill-opacity="1"><rect width="30" height="30"/></g>,<g transform="translate(158.30980846203417, 108.30980846203417) rotate(-0.8098084620341691) scale(0.4056603773584906)" fill="none" stroke="#34518D" fill-opacity="1"><rect width="15" height="15"/></g>,<g transform="translate(205.8622523988314, 155.8622523988314) rotate(-44.612252398831416) scale(0.4320388349514563)" fill="none" stroke="#D0421D" fill-opacity="1"><rect width="7.5" height="7.5"/></g>,<g transform="translate(159.4662390967143, 159.4662390967143) rotate(9.466239096714313) scale(0.5357142857142857)" fill="none" stroke="#2C6601" fill-opacity="1"><rect width="30" height="30"/></g>,<g transform="translate(296.91434185405615, 296.91434185405615) rotate(139.41434185405612) scale(0.5943396226415094)" fill="none" stroke="#D65AC2" fill-opacity="1"><rect width="15" height="15"/></g>,<g transform="translate(243.48631975839362, 243.48631975839362) rotate(82.23631975839362) scale(0.6262135922330098)" fill="none" stroke="#3561DA" fill-opacity="1"><rect width="7.5" height="7.5"/></g>,<g transform="translate(154.50009003837474, 204.50009003837474) rotate(4.50009003837475) scale(0.7142857142857143)" fill="none" stroke="#C1A946" fill-opacity="1"><rect width="30" height="30"/></g>,<g transform="translate(171.08620362768656, 221.08620362768656) rotate(-13.586203627686553) scale(0.7830188679245284)" fill="none" stroke="#6A76AC" fill-opacity="1"><rect width="15" height="15"/></g>,<g transform="translate(331.03475326109105, 381.03475326109105) rotate(169.78475326109108) scale(0.8203883495145631)" fill="none" stroke="#3A4EFE" fill-opacity="1"><rect width="7.5" height="7.5"/></g>,<g transform="translate(329.2996914308021, 429.2996914308021) rotate(179.29969143080214) scale(0.8928571428571429)" fill="none" stroke="#C888A3" fill-opacity="1"><rect width="30" height="30"/></g>,<g transform="translate(166.078396064417, 316.078396064417) rotate(16.078396064417017) scale(1.0714285714285714)" fill="none" stroke="#CFC112" fill-opacity="1"><rect width="30" height="30"/></g>,<g transform="translate(282.5475462913823, 432.5475462913823) rotate(-125.04754629138228) scale(1.1603773584905661)" fill="none" stroke="#BC17A2" fill-opacity="1"><rect width="15" height="15"/></g>,<g transform="translate(227.82423478279645, 377.82423478279645) rotate(66.57423478279647) scale(1.2087378640776698)" fill="none" stroke="#2D4652" fill-opacity="1"><rect width="7.5" height="7.5"/></g>,<g transform="translate(464.11175555274826, 614.1117555527483) rotate(300.98675555274826) scale(1.2339901477832513)" fill="none" stroke="#CC1BAA" fill-opacity="1"><rect width="3.75" height="3.75"/></g>,<g transform="translate(197.7649835465876, 397.7649835465876) rotate(-47.76498354658757) scale(1.25)" fill="none" stroke="#3CFA30" fill-opacity="1"><rect width="30" height="30"/></g>,<g transform="translate(179.71525926823946, 379.7152592682395) rotate(-22.21525926823947) scale(1.349056603773585)" fill="none" stroke="#50F08C" fill-opacity="1"><rect width="15" height="15"/></g>,<g transform="translate(413.8977626343505, 663.8977626343506) rotate(263.8977626343505) scale(1.4285714285714286)" fill="none" stroke="#719D77" fill-opacity="1"><rect width="30" height="30"/></g>,<g transform="translate(155.3890991178701, 455.3890991178701) rotate(-5.389099117870116) scale(1.6071428571428572)" fill="none" stroke="#855F26" fill-opacity="1"><rect width="30" height="30"/></g>,<g transform="translate(200, 0) rotate(0) scale(0)" fill="none" stroke="#1A38D7" fill-opacity="1"><rect width="30" height="30"/></g>,<g transform="translate(209.72054195087262, 9.720541950872626) rotate(2.2205419508726263) scale(0.02830188679245283)" fill="none" stroke="#66E615" fill-opacity="1"><rect width="15" height="15"/></g>,<g transform="translate(213.95850687524194, 13.95850687524193) rotate(-2.70850687524193) scale(0.043689320388349516)" fill="none" stroke="#71B897" fill-opacity="1"><rect width="7.5" height="7.5"/></g>,<g transform="translate(234.8197232515618, 84.81972325156181) rotate(34.81972325156182) scale(0.17857142857142858)" fill="none" stroke="#112F31" fill-opacity="1"><rect width="30" height="30"/></g>,<g transform="translate(200.7893794162565, 100.78937941625651) rotate(0.7893794162565155) scale(0.35714285714285715)" fill="none" stroke="#620768" fill-opacity="1"><rect width="30" height="30"/></g>,<g transform="translate(256.84993454318527, 156.84993454318524) rotate(-49.34993454318525) scale(0.4056603773584906)" fill="none" stroke="#CA8940" fill-opacity="1"><rect width="15" height="15"/></g>,<g transform="translate(295.64442171282707, 245.64442171282707) rotate(95.64442171282705) scale(0.5357142857142857)" fill="none" stroke="#45D8D2" fill-opacity="1"><rect width="30" height="30"/></g>,<g transform="translate(276.7924577896169, 226.7924577896169) rotate(69.29245778961689) scale(0.5943396226415094)" fill="none" stroke="#033648" fill-opacity="1"><rect width="15" height="15"/></g>,<g transform="translate(230.35480534249317, 230.35480534249317) rotate(-30.354805342493165) scale(0.7142857142857143)" fill="none" stroke="#80B8A3" fill-opacity="1"><rect width="30" height="30"/></g>,<g transform="translate(279.99507709015205, 279.99507709015205) rotate(72.49507709015205) scale(0.7830188679245284)" fill="none" stroke="#B965F4" fill-opacity="1"><rect width="15" height="15"/></g>,<g transform="translate(309.09333841310126, 309.09333841310126) rotate(-97.84333841310126) scale(0.8203883495145631)" fill="none" stroke="#4A41AA" fill-opacity="1"><rect width="7.5" height="7.5"/></g>,<g transform="translate(266.232923701912, 316.232923701912) rotate(66.23292370191199) scale(0.8928571428571429)" fill="none" stroke="#59B7E1" fill-opacity="1"><rect width="30" height="30"/></g>,<g transform="translate(442.8488017183895, 492.8488017183895) rotate(-235.34880171838947) scale(0.9716981132075472)" fill="none" stroke="#9564F3" fill-opacity="1"><rect width="15" height="15"/></g>,<g transform="translate(475.14001228576893, 525.140012285769) rotate(-263.89001228576893) scale(1.0145631067961165)" fill="none" stroke="#A8EE73" fill-opacity="1"><rect width="7.5" height="7.5"/></g>,<g transform="translate(386.3652265299837, 436.3652265299837) rotate(-173.24022652998372) scale(1.0369458128078817)" fill="none" stroke="#1FBCEF" fill-opacity="1"><rect width="3.75" height="3.75"/></g>,<g transform="translate(404.9066027549951, 504.9066027549951) rotate(204.90660275499513) scale(1.0714285714285714)" fill="none" stroke="#1B461B" fill-opacity="1"><rect width="30" height="30"/></g>,<g transform="translate(302.9352507433331, 452.9352507433331) rotate(-102.93525074333307) scale(1.25)" fill="none" stroke="#BC311A" fill-opacity="1"><rect width="30" height="30"/></g>,<g transform="translate(297.8688923169857, 447.8688923169857) rotate(-90.36889231698567) scale(1.349056603773585)" fill="none" stroke="#0D3F1A" fill-opacity="1"><rect width="15" height="15"/></g>,<g transform="translate(372.8117323319693, 572.8117323319693) rotate(-172.81173233196932) scale(1.4285714285714286)" fill="none" stroke="#9ED53E" fill-opacity="1"><rect width="30" height="30"/></g>,<g transform="translate(515.6111826140893, 715.6111826140893) rotate(-308.11118261408933) scale(1.5377358490566038)" fill="none" stroke="#E32D28" fill-opacity="1"><rect width="15" height="15"/></g>,<g transform="translate(377.2376383954264, 577.2376383954264) rotate(165.98763839542642) scale(1.5970873786407767)" fill="none" stroke="#F3DC4A" fill-opacity="1"><rect width="7.5" height="7.5"/></g>,<g transform="translate(604.5494082448738, 804.5494082448738) rotate(391.42440824487375) scale(1.6280788177339902)" fill="none" stroke="#8B1FF0" fill-opacity="1"><rect width="3.75" height="3.75"/></g>,<g transform="translate(488.2777003994991, 738.277700399499) rotate(288.2777003994991) scale(1.6071428571428572)" fill="none" stroke="#7DACDE" fill-opacity="1"><rect width="30" height="30"/></g>,<g transform="translate(339.6388583311342, 589.6388583311342) rotate(-132.1388583311342) scale(1.7264150943396226)" fill="none" stroke="#7E7E0C" fill-opacity="1"><rect width="15" height="15"/></g>,<g transform="translate(250, 0) rotate(0) scale(0)" fill="none" stroke="#6307A0" fill-opacity="1"><rect width="30" height="30"/></g>,<g transform="translate(266.7673879451232, 66.76738794512316) rotate(-16.767387945123158) scale(0.17857142857142858)" fill="none" stroke="#CA760E" fill-opacity="1"><rect width="30" height="30"/></g>,<g transform="translate(309.9330552738478, 109.93305527384783) rotate(-52.43305527384783) scale(0.2169811320754717)" fill="none" stroke="#43C77D" fill-opacity="1"><rect width="15" height="15"/></g>,<g transform="translate(266.2548872582846, 66.25488725828461) rotate(-5.004887258284608) scale(0.23786407766990292)" fill="none" stroke="#06B3AD" fill-opacity="1"><rect width="7.5" height="7.5"/></g>,<g transform="translate(308.8129920189753, 158.8129920189753) rotate(58.812992018975294) scale(0.35714285714285715)" fill="none" stroke="#6345D2" fill-opacity="1"><rect width="30" height="30"/></g>,<g transform="translate(332.7633618291784, 182.7633618291784) rotate(75.2633618291784) scale(0.4056603773584906)" fill="none" stroke="#4CCB31" fill-opacity="1"><rect width="15" height="15"/></g>,<g transform="translate(327.3078468313572, 177.3078468313572) rotate(-66.05784683135721) scale(0.4320388349514563)" fill="none" stroke="#53B061" fill-opacity="1"><rect width="7.5" height="7.5"/></g>,<g transform="translate(370.40044241433657, 220.40044241433657) rotate(-107.27544241433655) scale(0.4458128078817734)" fill="none" stroke="#9AF707" fill-opacity="1"><rect width="3.75" height="3.75"/></g>,<g transform="translate(264.9842359655765, 164.98423596557646) rotate(-14.984235965576463) scale(0.5357142857142857)" fill="none" stroke="#5C969E" fill-opacity="1"><rect width="30" height="30"/></g>,<g transform="translate(402.7973228302092, 302.7973228302092) rotate(145.29732283020923) scale(0.5943396226415094)" fill="none" stroke="#42C663" fill-opacity="1"><rect width="15" height="15"/></g>,<g transform="translate(361.27909192756505, 261.27909192756505) rotate(100.02909192756503) scale(0.6262135922330098)" fill="none" stroke="#9AFD0D" fill-opacity="1"><rect width="7.5" height="7.5"/></g>,<g transform="translate(328.5001894648249, 228.50018946482493) rotate(65.37518946482493) scale(0.6428571428571429)" fill="none" stroke="#3FE130" fill-opacity="1"><rect width="3.75" height="3.75"/></g>,<g transform="translate(384.6381482950984, 334.6381482950984) rotate(-134.63814829509838) scale(0.7142857142857143)" fill="none" stroke="#4F896C" fill-opacity="1"><rect width="30" height="30"/></g>,<g transform="translate(348.4523242947597, 298.4523242947597) rotate(90.95232429475973) scale(0.7830188679245284)" fill="none" stroke="#C09FE0" fill-opacity="1"><rect width="15" height="15"/></g>,<g transform="translate(478.5093419484841, 428.5093419484841) rotate(217.25934194848415) scale(0.8203883495145631)" fill="none" stroke="#57BE4B" fill-opacity="1"><rect width="7.5" height="7.5"/></g>,<g transform="translate(467.24372083894394, 417.24372083894394) rotate(204.11872083894394) scale(0.8399014778325123)" fill="none" stroke="#49C560" fill-opacity="1"><rect width="3.75" height="3.75"/></g>,<g transform="translate(310.5227949354418, 310.5227949354418) rotate(60.5227949354418) scale(0.8928571428571429)" fill="none" stroke="#624E49" fill-opacity="1"><rect width="30" height="30"/></g>,<g transform="translate(277.8134753947294, 277.8134753947294) rotate(20.313475394729352) scale(0.9716981132075472)" fill="none" stroke="#FC3259" fill-opacity="1"><rect width="15" height="15"/></g>,<g transform="translate(321.34276798864533, 321.34276798864533) rotate(-60.09276798864532) scale(1.0145631067961165)" fill="none" stroke="#F70C79" fill-opacity="1"><rect width="7.5" height="7.5"/></g>,<g transform="translate(498.5655233381889, 498.5655233381889) rotate(-235.44052333818888) scale(1.0369458128078817)" fill="none" stroke="#AB1B18" fill-opacity="1"><rect width="3.75" height="3.75"/></g>,<g transform="translate(417.76145860009126, 467.76145860009126) rotate(167.7614586000913) scale(1.0714285714285714)" fill="none" stroke="#F8CA3E" fill-opacity="1"><rect width="30" height="30"/></g>,<g transform="translate(278.84139387102005, 378.84139387102005) rotate(-28.841393871020053) scale(1.25)" fill="none" stroke="#330932" fill-opacity="1"><rect width="30" height="30"/></g>,<g transform="translate(508.4421713060371, 658.4421713060372) rotate(258.4421713060371) scale(1.4285714285714286)" fill="none" stroke="#709489" fill-opacity="1"><rect width="30" height="30"/></g>,<g transform="translate(373.42867631524337, 573.4286763152434) rotate(123.42867631524338) scale(1.6071428571428572)" fill="none" stroke="#BF0DA7" fill-opacity="1"><rect width="30" height="30"/></g>,<g transform="translate(300, 0) rotate(0) scale(0)" fill="none" stroke="#A67095" fill-opacity="1"><rect width="30" height="30"/></g>,<g transform="translate(329.29003641055414, 79.29003641055414) rotate(29.290036410554144) scale(0.17857142857142858)" fill="none" stroke="#D76299" fill-opacity="1"><rect width="30" height="30"/></g>,<g transform="translate(312.26318477012643, 62.26318477012641) rotate(4.763184770126405) scale(0.2169811320754717)" fill="none" stroke="#5DB691" fill-opacity="1"><rect width="15" height="15"/></g>,<g transform="translate(322.36617592786837, 72.3661759278684) rotate(-11.116175927868394) scale(0.23786407766990292)" fill="none" stroke="#BB6C1F" fill-opacity="1"><rect width="7.5" height="7.5"/></g>,<g transform="translate(355.25544164287106, 155.25544164287106) rotate(-55.25544164287105) scale(0.35714285714285715)" fill="none" stroke="#E336D3" fill-opacity="1"><rect width="30" height="30"/></g>,<g transform="translate(382.26589283219494, 182.26589283219494) rotate(-74.76589283219492) scale(0.4056603773584906)" fill="none" stroke="#2CE86D" fill-opacity="1"><rect width="15" height="15"/></g>,<g transform="translate(393.4987465551992, 193.49874655519918) rotate(-82.24874655519918) scale(0.4320388349514563)" fill="none" stroke="#1DAD28" fill-opacity="1"><rect width="7.5" height="7.5"/></g>,<g transform="translate(347.7440711304642, 197.7440711304642) rotate(47.74407113046421) scale(0.5357142857142857)" fill="none" stroke="#ED1DD0" fill-opacity="1"><rect width="30" height="30"/></g>,<g transform="translate(361.5520269646388, 211.55202696463883) rotate(-54.05202696463882) scale(0.5943396226415094)" fill="none" stroke="#B854D4" fill-opacity="1"><rect width="15" height="15"/></g>,<g transform="translate(414.9017303277459, 314.9017303277459) rotate(-114.90173032774587) scale(0.7142857142857143)" fill="none" stroke="#C36519" fill-opacity="1"><rect width="30" height="30"/></g>,<g transform="translate(370.2449687242321, 320.2449687242321) rotate(-70.24496872423207) scale(0.8928571428571429)" fill="none" stroke="#8B95D5" fill-opacity="1"><rect width="30" height="30"/></g>,<g transform="translate(381.3792558470869, 331.3792558470869) rotate(-73.87925584708688) scale(0.9716981132075472)" fill="none" stroke="#7B5C17" fill-opacity="1"><rect width="15" height="15"/></g>,<g transform="translate(368.91744158436256, 318.91744158436256) rotate(-57.66744158436259) scale(1.0145631067961165)" fill="none" stroke="#815F05" fill-opacity="1"><rect width="7.5" height="7.5"/></g>,<g transform="translate(370.9909764015872, 370.9909764015872) rotate(70.99097640158722) scale(1.0714285714285714)" fill="none" stroke="#90850D" fill-opacity="1"><rect width="30" height="30"/></g>,<g transform="translate(584.4612500283615, 584.4612500283615) rotate(276.9612500283616) scale(1.1603773584905661)" fill="none" stroke="#A2B006" fill-opacity="1"><rect width="15" height="15"/></g>,<g transform="translate(437.0404418042169, 437.0404418042169) rotate(-125.79044180421695) scale(1.2087378640776698)" fill="none" stroke="#0DC1A5" fill-opacity="1"><rect width="7.5" height="7.5"/></g>,<g transform="translate(360.58425206909163, 410.58425206909163) rotate(60.58425206909161) scale(1.25)" fill="none" stroke="#B1470C" fill-opacity="1"><rect width="30" height="30"/></g>,<g transform="translate(429.72368758769386, 479.72368758769386) rotate(122.22368758769387) scale(1.349056603773585)" fill="none" stroke="#8C95E8" fill-opacity="1"><rect width="15" height="15"/></g>,<g transform="translate(551.3053468748766, 601.3053468748766) rotate(240.0553468748766) scale(1.4029126213592233)" fill="none" stroke="#C4E447" fill-opacity="1"><rect width="7.5" height="7.5"/></g>,<g transform="translate(587.4235145948676, 687.4235145948676) rotate(287.4235145948675) scale(1.4285714285714286)" fill="none" stroke="#489D94" fill-opacity="1"><rect width="30" height="30"/></g>,<g transform="translate(371.2119387964387, 471.2119387964387) rotate(-63.71193879643871) scale(1.5377358490566038)" fill="none" stroke="#416369" fill-opacity="1"><rect width="15" height="15"/></g>,<g transform="translate(590.3794336885392, 690.3794336885392) rotate(-279.12943368853917) scale(1.5970873786407767)" fill="none" stroke="#148FDF" fill-opacity="1"><rect width="7.5" height="7.5"/></g>,<g transform="translate(591.0573683450812, 741.0573683450812) rotate(291.0573683450811) scale(1.6071428571428572)" fill="none" stroke="#B635BA" fill-opacity="1"><rect width="30" height="30"/></g>,<g transform="translate(587.2830314594237, 737.2830314594237) rotate(-279.7830314594237) scale(1.7264150943396226)" fill="none" stroke="#4D388B" fill-opacity="1"><rect width="15" height="15"/></g>,<g transform="translate(603.5833107886103, 753.5833107886103) rotate(292.33331078861033) scale(1.7912621359223302)" fill="none" stroke="#8D462E" fill-opacity="1"><rect width="7.5" height="7.5"/></g>,<g transform="translate(440.980943413688, 590.980943413688) rotate(127.85594341368798) scale(1.8251231527093597)" fill="none" stroke="#836C09" fill-opacity="1"><rect width="3.75" height="3.75"/></g>,<g transform="translate(350, 0) rotate(0) scale(0)" fill="none" stroke="#8BCE46" fill-opacity="1"><rect width="30" height="30"/></g>,<g transform="translate(363.9596257241369, 63.95962572413692) rotate(-13.959625724136922) scale(0.17857142857142858)" fill="none" stroke="#32B6E2" fill-opacity="1"><rect width="30" height="30"/></g>,<g transform="translate(410.3323859374204, 110.33238593742038) rotate(52.83238593742038) scale(0.2169811320754717)" fill="none" stroke="#E6D6D5" fill-opacity="1"><rect width="15" height="15"/></g>,<g transform="translate(414.4169237671467, 114.41692376714673) rotate(53.166923767146734) scale(0.23786407766990292)" fill="none" stroke="#92D7CB" fill-opacity="1"><rect width="7.5" height="7.5"/></g>,<g transform="translate(392.39858864835765, 92.39858864835765) rotate(29.273588648357638) scale(0.24876847290640394)" fill="none" stroke="#F3108C" fill-opacity="1"><rect width="3.75" height="3.75"/></g>,<g transform="translate(399.03398701658807, 149.0339870165881) rotate(49.03398701658809) scale(0.35714285714285715)" fill="none" stroke="#B16AC0" fill-opacity="1"><rect width="30" height="30"/></g>,<g transform="translate(426.4147223228546, 226.41472232285454) rotate(-76.41472232285454) scale(0.5357142857142857)" fill="none" stroke="#5A6065" fill-opacity="1"><rect width="30" height="30"/></g>,<g transform="translate(420.5674831623063, 220.5674831623063) rotate(-63.06748316230632) scale(0.5943396226415094)" fill="none" stroke="#C0B5CB" fill-opacity="1"><rect width="15" height="15"/></g>,<g transform="translate(467.79378654319333, 317.79378654319333) rotate(117.79378654319332) scale(0.7142857142857143)" fill="none" stroke="#8FC40F" fill-opacity="1"><rect width="30" height="30"/></g>,<g transform="translate(403.29770022813784, 253.29770022813787) rotate(-45.79770022813787) scale(0.7830188679245284)" fill="none" stroke="#8DA1C8" fill-opacity="1"><rect width="15" height="15"/></g>,<g transform="translate(479.9956612436756, 379.9956612436756) rotate(-129.99566124367558) scale(0.8928571428571429)" fill="none" stroke="#723AC8" fill-opacity="1"><rect width="30" height="30"/></g>,<g transform="translate(441.9045136333327, 341.9045136333327) rotate(-84.40451363333273) scale(0.9716981132075472)" fill="none" stroke="#D0B044" fill-opacity="1"><rect width="15" height="15"/></g>,<g transform="translate(469.99507177452887, 369.99507177452887) rotate(-108.74507177452887) scale(1.0145631067961165)" fill="none" stroke="#A3A6EF" fill-opacity="1"><rect width="7.5" height="7.5"/></g>,<g transform="translate(423.1875448061897, 373.1875448061897) rotate(73.1875448061897) scale(1.0714285714285714)" fill="none" stroke="#FDB9FB" fill-opacity="1"><rect width="30" height="30"/></g>,<g transform="translate(479.65240157577864, 429.65240157577864) rotate(122.15240157577867) scale(1.1603773584905661)" fill="none" stroke="#EAD6FF" fill-opacity="1"><rect width="15" height="15"/></g>,<g transform="translate(430.1072826716434, 380.1072826716434) rotate(-68.8572826716434) scale(1.2087378640776698)" fill="none" stroke="#230144" fill-opacity="1"><rect width="7.5" height="7.5"/></g>,<g transform="translate(434.963390841729, 434.963390841729) rotate(84.963390841729) scale(1.25)" fill="none" stroke="#15E846" fill-opacity="1"><rect width="30" height="30"/></g>,<g transform="translate(621.9420281257705, 621.9420281257705) rotate(264.4420281257706) scale(1.349056603773585)" fill="none" stroke="#B9B35B" fill-opacity="1"><rect width="15" height="15"/></g>,<g transform="translate(369.1565660389626, 419.1565660389626) rotate(19.156566038962602) scale(1.4285714285714286)" fill="none" stroke="#36D68A" fill-opacity="1"><rect width="30" height="30"/></g>,<g transform="translate(366.9288851356566, 416.9288851356566) rotate(-9.428885135656657) scale(1.5377358490566038)" fill="none" stroke="#2365B6" fill-opacity="1"><rect width="15" height="15"/></g>,<g transform="translate(741.4636392662713, 791.4636392662713) rotate(-380.21363926627134) scale(1.5970873786407767)" fill="none" stroke="#1770BA" fill-opacity="1"><rect width="7.5" height="7.5"/></g>,<g transform="translate(554.306740910629, 654.306740910629) rotate(-204.30674091062892) scale(1.6071428571428572)" fill="none" stroke="#839EB4" fill-opacity="1"><rect width="30" height="30"/></g>,<g transform="translate(660.8897881554733, 760.8897881554733) rotate(303.3897881554733) scale(1.7264150943396226)" fill="none" stroke="#C903F4" fill-opacity="1"><rect width="15" height="15"/></g>,<g transform="translate(500.67273861566804, 600.6727386156681) rotate(139.42273861566804) scale(1.7912621359223302)" fill="none" stroke="#0C1518" fill-opacity="1"><rect width="7.5" height="7.5"/></g>,<g transform="translate(400, 0) rotate(0) scale(0)" fill="none" stroke="#3C9FFB" fill-opacity="1"><rect width="30" height="30"/></g>,<g transform="translate(413.1103126068764, 13.110312606876377) rotate(-5.610312606876377) scale(0.02830188679245283)" fill="none" stroke="#83C4A9" fill-opacity="1"><rect width="15" height="15"/></g>,<g transform="translate(413.46023111871995, 13.46023111871994) rotate(-2.210231118719941) scale(0.043689320388349516)" fill="none" stroke="#EA6107" fill-opacity="1"><rect width="7.5" height="7.5"/></g>,<g transform="translate(410.1454811885183, 60.14548118851833) rotate(10.145481188518334) scale(0.17857142857142858)" fill="none" stroke="#FB4D32" fill-opacity="1"><rect width="30" height="30"/></g>,<g transform="translate(412.35268995529526, 62.35268995529525) rotate(4.852689955295249) scale(0.2169811320754717)" fill="none" stroke="#BE4E01" fill-opacity="1"><rect width="15" height="15"/></g>,<g transform="translate(433.2091185522916, 83.20911855229159) rotate(21.95911855229159) scale(0.23786407766990292)" fill="none" stroke="#8850DE" fill-opacity="1"><rect width="7.5" height="7.5"/></g>,<g transform="translate(486.5230330457848, 136.52303304578479) rotate(-73.39803304578479) scale(0.24876847290640394)" fill="none" stroke="#8091B0" fill-opacity="1"><rect width="3.75" height="3.75"/></g>,<g transform="translate(434.90759336190126, 134.90759336190126) rotate(-34.90759336190126) scale(0.35714285714285715)" fill="none" stroke="#E194BE" fill-opacity="1"><rect width="30" height="30"/></g>,<g transform="translate(438.4685217004409, 138.46852170044087) rotate(-30.968521700440863) scale(0.4056603773584906)" fill="none" stroke="#57132F" fill-opacity="1"><rect width="15" height="15"/></g>,<g transform="translate(445.015067318011, 145.015067318011) rotate(-33.765067318011006) scale(0.4320388349514563)" fill="none" stroke="#B8B861" fill-opacity="1"><rect width="7.5" height="7.5"/></g>,<g transform="translate(504.1455673098866, 254.1455673098866) rotate(-104.14556730988659) scale(0.5357142857142857)" fill="none" stroke="#2E0FD1" fill-opacity="1"><rect width="30" height="30"/></g>,<g transform="translate(516.3316243915414, 266.33162439154137) rotate(-108.83162439154135) scale(0.5943396226415094)" fill="none" stroke="#655F88" fill-opacity="1"><rect width="15" height="15"/></g>,<g transform="translate(442.5071728226039, 192.5071728226039) rotate(-31.257172822603895) scale(0.6262135922330098)" fill="none" stroke="#46E370" fill-opacity="1"><rect width="7.5" height="7.5"/></g>,<g transform="translate(501.5402801591763, 251.54028015917626) rotate(-88.41528015917626) scale(0.6428571428571429)" fill="none" stroke="#CC0F64" fill-opacity="1"><rect width="3.75" height="3.75"/></g>,<g transform="translate(513.6828727534281, 313.68287275342817) rotate(-113.68287275342816) scale(0.7142857142857143)" fill="none" stroke="#6A74D0" fill-opacity="1"><rect width="30" height="30"/></g>,<g transform="translate(448.09672341190236, 248.09672341190236) rotate(-40.59672341190237) scale(0.7830188679245284)" fill="none" stroke="#94F998" fill-opacity="1"><rect width="15" height="15"/></g>,<g transform="translate(437.98899009538127, 237.9889900953813) rotate(26.738990095381297) scale(0.8203883495145631)" fill="none" stroke="#D8F886" fill-opacity="1"><rect width="7.5" height="7.5"/></g>,<g transform="translate(493.255185863302, 293.255185863302) rotate(80.13018586330205) scale(0.8399014778325123)" fill="none" stroke="#D71B73" fill-opacity="1"><rect width="3.75" height="3.75"/></g>,<g transform="translate(463.352870489225, 313.352870489225) rotate(63.35287048922501) scale(0.8928571428571429)" fill="none" stroke="#918414" fill-opacity="1"><rect width="30" height="30"/></g>,<g transform="translate(487.8600440050337, 337.8600440050337) rotate(-80.36004400503376) scale(0.9716981132075472)" fill="none" stroke="#AC7485" fill-opacity="1"><rect width="15" height="15"/></g>,<g transform="translate(411.25210155798834, 261.25210155798834) rotate(-0.0021015579883424396) scale(1.0145631067961165)" fill="none" stroke="#3D7878" fill-opacity="1"><rect width="7.5" height="7.5"/></g>,<g transform="translate(477.77556944741787, 377.77556944741787) rotate(77.7755694474179) scale(1.0714285714285714)" fill="none" stroke="#8899DF" fill-opacity="1"><rect width="30" height="30"/></g>,<g transform="translate(417.77283790121567, 317.77283790121567) rotate(10.272837901215683) scale(1.1603773584905661)" fill="none" stroke="#3460F5" fill-opacity="1"><rect width="15" height="15"/></g>,<g transform="translate(677.4264138163969, 577.4264138163969) rotate(266.17641381639686) scale(1.2087378640776698)" fill="none" stroke="#96B0E1" fill-opacity="1"><rect width="7.5" height="7.5"/></g>,<g transform="translate(659.1833802552874, 559.1833802552874) rotate(246.05838025528732) scale(1.2339901477832513)" fill="none" stroke="#430116" fill-opacity="1"><rect width="3.75" height="3.75"/></g>,<g transform="translate(425.68209129841193, 375.68209129841193) rotate(25.68209129841195) scale(1.25)" fill="none" stroke="#F14F37" fill-opacity="1"><rect width="30" height="30"/></g>,<g transform="translate(550.7684031109268, 500.76840311092684) rotate(-143.26840311092684) scale(1.349056603773585)" fill="none" stroke="#8768AD" fill-opacity="1"><rect width="15" height="15"/></g>,<g transform="translate(731.334526456692, 681.334526456692) rotate(320.08452645669195) scale(1.4029126213592233)" fill="none" stroke="#0D9FB9" fill-opacity="1"><rect width="7.5" height="7.5"/></g>,<g transform="translate(540.0964677262892, 540.0964677262892) rotate(-140.09646772628923) scale(1.4285714285714286)" fill="none" stroke="#DCB9D1" fill-opacity="1"><rect width="30" height="30"/></g>,<g transform="translate(409.8547100023745, 409.8547100023745) rotate(2.354710002374498) scale(1.5377358490566038)" fill="none" stroke="#650F04" fill-opacity="1"><rect width="15" height="15"/></g>,<g transform="translate(454.2591157032696, 454.2591157032696) rotate(-43.00911570326955) scale(1.5970873786407767)" fill="none" stroke="#F0001F" fill-opacity="1"><rect width="7.5" height="7.5"/></g>,<g transform="translate(709.291152566898, 759.291152566898) rotate(-309.29115256689795) scale(1.6071428571428572)" fill="none" stroke="#E9988E" fill-opacity="1"><rect width="30" height="30"/></g>,<g transform="translate(644.04346716286, 694.04346716286) rotate(-236.54346716286003) scale(1.7264150943396226)" fill="none" stroke="#8236A7" fill-opacity="1"><rect width="15" height="15"/></g>,<g transform="translate(450, 0) rotate(0) scale(0)" fill="none" stroke="#FB98E4" fill-opacity="1"><rect width="30" height="30"/></g>,<g transform="translate(459.5451330728706, 59.54513307287061) rotate(9.545133072870609) scale(0.17857142857142858)" fill="none" stroke="#C3D792" fill-opacity="1"><rect width="30" height="30"/></g>,<g transform="translate(457.7846017680181, 57.784601768018106) rotate(0.2846017680181048) scale(0.2169811320754717)" fill="none" stroke="#0C71F3" fill-opacity="1"><rect width="15" height="15"/></g>,<g transform="translate(466.9691870119198, 116.96918701191984) rotate(16.96918701191984) scale(0.35714285714285715)" fill="none" stroke="#258064" fill-opacity="1"><rect width="30" height="30"/></g>,<g transform="translate(519.6541706640215, 219.65417066402154) rotate(69.65417066402154) scale(0.5357142857142857)" fill="none" stroke="#B7207C" fill-opacity="1"><rect width="30" height="30"/></g>,<g transform="translate(542.0540532104724, 292.0540532104723) rotate(92.05405321047233) scale(0.7142857142857143)" fill="none" stroke="#C79075" fill-opacity="1"><rect width="30" height="30"/></g>,<g transform="translate(608.3603380410107, 358.3603380410106) rotate(-150.8603380410106) scale(0.7830188679245284)" fill="none" stroke="#CC7675" fill-opacity="1"><rect width="15" height="15"/></g>,<g transform="translate(668.6084658546355, 418.6084658546355) rotate(207.35846585463548) scale(0.8203883495145631)" fill="none" stroke="#09790D" fill-opacity="1"><rect width="7.5" height="7.5"/></g>,<g transform="translate(651.8836116690773, 401.8836116690772) rotate(188.7586116690772) scale(0.8399014778325123)" fill="none" stroke="#0A9F83" fill-opacity="1"><rect width="3.75" height="3.75"/></g>,<g transform="translate(607.0841392702041, 407.08413927020405) rotate(-157.08413927020405) scale(0.8928571428571429)" fill="none" stroke="#496E63" fill-opacity="1"><rect width="30" height="30"/></g>,<g transform="translate(611.4688392379835, 411.4688392379835) rotate(153.9688392379835) scale(0.9716981132075472)" fill="none" stroke="#518B9C" fill-opacity="1"><rect width="15" height="15"/></g>,<g transform="translate(470.1118725586406, 270.1118725586406) rotate(-8.861872558640593) scale(1.0145631067961165)" fill="none" stroke="#46FE98" fill-opacity="1"><rect width="7.5" height="7.5"/></g>,<g transform="translate(717.9898803482736, 517.9898803482736) rotate(-254.86488034827354) scale(1.0369458128078817)" fill="none" stroke="#CD59C5" fill-opacity="1"><rect width="3.75" height="3.75"/></g>,<g transform="translate(578.3864542380607, 428.3864542380607) rotate(-128.3864542380607) scale(1.0714285714285714)" fill="none" stroke="#DDE709" fill-opacity="1"><rect width="30" height="30"/></g>,<g transform="translate(739.8384501013202, 589.8384501013202) rotate(-282.33845010132023) scale(1.1603773584905661)" fill="none" stroke="#3CE5D9" fill-opacity="1"><rect width="15" height="15"/></g>,<g transform="translate(603.6085345653541, 453.60853456535415) rotate(142.35853456535412) scale(1.2087378640776698)" fill="none" stroke="#605F4D" fill-opacity="1"><rect width="7.5" height="7.5"/></g>,<g transform="translate(638.7422744293299, 488.74227442932994) rotate(-175.61727442932994) scale(1.2339901477832513)" fill="none" stroke="#B0FBD8" fill-opacity="1"><rect width="3.75" height="3.75"/></g>,<g transform="translate(512.1852197956547, 412.1852197956547) rotate(62.18521979565467) scale(1.25)" fill="none" stroke="#D5C2D5" fill-opacity="1"><rect width="30" height="30"/></g>,<g transform="translate(554.0622459351615, 454.0622459351615) rotate(-96.56224593516153) scale(1.349056603773585)" fill="none" stroke="#B6E322" fill-opacity="1"><rect width="15" height="15"/></g>,<g transform="translate(487.20696108401836, 387.20696108401836) rotate(-25.956961084018342) scale(1.4029126213592233)" fill="none" stroke="#054357" fill-opacity="1"><rect width="7.5" height="7.5"/></g>,<g transform="translate(667.1488101779199, 617.1488101779199) rotate(-217.1488101779199) scale(1.4285714285714286)" fill="none" stroke="#D9DBD1" fill-opacity="1"><rect width="30" height="30"/></g>,<g transform="translate(592.8643679623008, 542.8643679623008) rotate(-135.36436796230078) scale(1.5377358490566038)" fill="none" stroke="#4ADC2C" fill-opacity="1"><rect width="15" height="15"/></g>,<g transform="translate(490.1070750978368, 490.1070750978368) rotate(40.10707509783681) scale(1.6071428571428572)" fill="none" stroke="#6C7515" fill-opacity="1"><rect width="30" height="30"/></g>,<g transform="translate(779.4379803495062, 779.4379803495062) rotate(-321.9379803495062) scale(1.7264150943396226)" fill="none" stroke="#33EAF7" fill-opacity="1"><rect width="15" height="15"/></g>,<g transform="translate(475.6693046546068, 475.6693046546068) rotate(14.419304654606785) scale(1.7912621359223302)" fill="none" stroke="#EF5357" fill-opacity="1"><rect width="7.5" height="7.5"/></g></g>
            </svg>