
        <svg width="100%" height="100%" viewBox="0 0 500 500">
                <g id="layer_1">
                    <rect x="6" y="160" width="120" height="120" fill="#cb3237" stroke="none"  fill-opacity="1" transform="rotate(5 66 220)" />
                    <rect x="50" y="20" width="120" height="120" fill="#6b2933" stroke="none"  fill-opacity="1" transform="rotate(-25 110 80)" />
                    <rect x="210" y="235" width="120" height="120" fill="#6b2933" stroke="none"  fill-opacity="1" transform="rotate(-30 270 295)" />
                    <rect x="270" y="210" width="120" height="120" fill="#6b2933" stroke="none"  fill-opacity="1" transform="rotate(8 330 270)" />
                </g>
                <g id="layer_2"> 
                    <rect x="138" y="10" width="120" height="120" fill="#bf302c" stroke="none"  fill-opacity="0.9" transform="rotate(-5 198 70)" />
                    <rect x="45" y="90" width="120" height="120" fill="#e84139" stroke="none"  fill-opacity="1" transform="rotate(-45 105 150)" />
                    <rect x="210" y="112" width="120" height="120" fill="#e84139" stroke="none"  fill-opacity="1" transform="rotate(-12 270 172)" />
                    <rect x="270" y="330" width="120" height="120" fill="#cb3237" stroke="none"  fill-opacity="1" transform="rotate(45 330 390)" />
                    <rect x="340" y="345" width="120" height="120" fill="#e52524" stroke="none"  fill-opacity="1" transform="rotate(18 400 405)" />
                </g>
            </svg>